<svg xmlns="http://www.w3.org/2000/svg" width="50.521" height="50.521" viewBox="0 0 50.521 50.521">
  <g id="Raggruppa_20193" data-name="Raggruppa 20193" transform="translate(-147.473 -22.714)">
    <g id="Raggruppa_20190" data-name="Raggruppa 20190" transform="translate(148.332 23.573)">
      <circle id="Ellisse_8838" data-name="Ellisse 8838" cx="21.296" cy="21.296" r="21.296" transform="translate(0 42.053) rotate(-80.881)" fill="none" stroke="#0060c1" stroke-linecap="round" stroke-linejoin="round" stroke-width="1.5"/>
      <g id="Raggruppa_20189" data-name="Raggruppa 20189" transform="translate(10.706 9.066)">
        <g id="Raggruppa_20188" data-name="Raggruppa 20188">
          <g id="Raggruppa_20187" data-name="Raggruppa 20187">
            <g id="Raggruppa_20186" data-name="Raggruppa 20186" transform="translate(6.423)">
              <path id="Tracciato_64791" data-name="Tracciato 64791" d="M195.96,72.724a5.77,5.77,0,0,1-.817-2.487" transform="translate(-183.402 -50.824)" fill="none" stroke="#b8191a" stroke-linecap="round" stroke-linejoin="round" stroke-width="1.6"/>
              <path id="Tracciato_64792" data-name="Tracciato 64792" d="M180.241,69.808a7.944,7.944,0,0,1-.762,2.751" transform="translate(-177.398 -50.66)" fill="none" stroke="#b8191a" stroke-linecap="round" stroke-linejoin="round" stroke-width="1.6"/>
              <path id="Tracciato_64793" data-name="Tracciato 64793" d="M177.223,60.567a13.71,13.71,0,0,0,3.138,6.62,5.476,5.476,0,0,0,3.4.852h.1a5.476,5.476,0,0,0,3.4-.852,13.71,13.71,0,0,0,3.138-6.62" transform="translate(-176.534 -47.118)" fill="none" stroke="#b8191a" stroke-linecap="round" stroke-linejoin="round" stroke-width="1.6" fill-rule="evenodd"/>
              <path id="Tracciato_64794" data-name="Tracciato 64794" d="M188.084,40.787c-4.54-4.372-12.028-1.386-11.978,6.252a16.8,16.8,0,0,0,.689,5.171c-.068-1.241.876-5.105,1.773-5.174.3-.023,1.657.733,2.948.922a10.76,10.76,0,0,0,6.532-.922c.9.069,1.986,3.934,1.918,5.174A20.674,20.674,0,0,0,190.7,47.4C190.83,44.481,191.075,42.075,188.084,40.787Z" transform="translate(-176.106 -38.761)" fill="none" stroke="#b8191a" stroke-linecap="round" stroke-linejoin="round" stroke-width="1.6"/>
            </g>
            <path id="Tracciato_64795" data-name="Tracciato 64795" d="M204.972,79.581c-.791-3.079-8.5-5.312-8.5-5.312" transform="translate(-177.486 -52.37)" fill="none" stroke="#b8191a" stroke-linecap="round" stroke-linejoin="round" stroke-width="1.6"/>
            <path id="Tracciato_64796" data-name="Tracciato 64796" d="M174.195,74.269s-7.713,2.233-8.5,5.312" transform="translate(-165.691 -52.37)" fill="none" stroke="#b8191a" stroke-linecap="round" stroke-linejoin="round" stroke-width="1.6"/>
          </g>
        </g>
      </g>
    </g>
  </g>
</svg>
