<svg xmlns="http://www.w3.org/2000/svg" width="28.081" height="34.808" viewBox="0 0 28.081 34.808">
  <g id="Raggruppa_20278" data-name="Raggruppa 20278" transform="translate(-990.842 -551.87)">
    <path id="Tracciato_64900" data-name="Tracciato 64900" d="M1017.521,580.15H992.244a1.4,1.4,0,0,1-1.156-2.194l.025-.033,2.667-3.406a2.948,2.948,0,0,0,.624-1.809v-7.523c0-.018,0-.037,0-.055a10.5,10.5,0,0,1,8.037-10.011v-.81a2.439,2.439,0,0,1,4.879,0v.81a10.5,10.5,0,0,1,8.038,10.057l0,7.531a2.947,2.947,0,0,0,.624,1.809l2.667,3.406.024.033a1.4,1.4,0,0,1-1.156,2.194Zm-25.354-1.438a.077.077,0,0,0,0,.077.078.078,0,0,0,.075.045h25.278a.078.078,0,0,0,.075-.045.077.077,0,0,0,0-.077l-2.649-3.383a4.271,4.271,0,0,1-.9-2.621l0-7.523a9.172,9.172,0,0,0-7.5-8.885.658.658,0,0,1-.539-.647v-1.344a1.123,1.123,0,0,0-2.246,0v1.344a.658.658,0,0,1-.539.647,9.174,9.174,0,0,0-7.5,8.893c0,.012,0,.024,0,.036v7.479a4.271,4.271,0,0,1-.9,2.621Z" fill="#0060c1"/>
    <path id="Tracciato_64901" data-name="Tracciato 64901" d="M1074.982,815.99a5.192,5.192,0,0,1-5.186-5.186.658.658,0,0,1,1.316,0,3.87,3.87,0,1,0,7.74,0,.658.658,0,1,1,1.316,0A5.192,5.192,0,0,1,1074.982,815.99Z" transform="translate(-70.1 -229.311)" fill="#b8191a"/>
    <g id="Raggruppa_20278-2" data-name="Raggruppa 20278" transform="translate(991.506 553.344)">
      <path id="Tracciato_64902" data-name="Tracciato 64902" d="M997.438,577.122a.673.673,0,0,1-.673-.667,12.248,12.248,0,0,1,7.535-11.392.673.673,0,1,1,.516,1.243,10.9,10.9,0,0,0-6.705,10.137.673.673,0,0,1-.667.679Z" transform="translate(-996.765 -565.012)" fill="#b8191a"/>
    </g>
    <g id="Raggruppa_20279" data-name="Raggruppa 20279" transform="translate(1009.793 553.344)">
      <path id="Tracciato_64903" data-name="Tracciato 64903" d="M1167.62,577.121h-.006a.673.673,0,0,1-.667-.679,10.9,10.9,0,0,0-6.705-10.137.673.673,0,1,1,.516-1.243,12.248,12.248,0,0,1,7.535,11.392A.673.673,0,0,1,1167.62,577.121Z" transform="translate(-1159.827 -565.01)" fill="#b8191a"/>
    </g>
  </g>
</svg>
