<svg xmlns="http://www.w3.org/2000/svg" width="44.502" height="33.5" viewBox="0 0 44.502 33.5">
  <g id="Raggruppa_20259" data-name="Raggruppa 20259" transform="translate(-290.621 -688.789)">
    <path id="Tracciato_64882" data-name="Tracciato 64882" d="M391.69,755.488h9.5a.421.421,0,1,0,0-.841h-9.5a.421.421,0,1,0,0,.841Z" transform="translate(-94.015 -61.437)" fill="#b8191a"/>
    <path id="Tracciato_64883" data-name="Tracciato 64883" d="M391.69,811h6.916a.421.421,0,0,0,0-.841H391.69a.421.421,0,0,0,0,.841Z" transform="translate(-94.015 -113.42)" fill="#b8191a"/>
    <path id="Tracciato_64884" data-name="Tracciato 64884" d="M391.69,866.525h8.21a.421.421,0,0,0,0-.841h-8.21a.421.421,0,0,0,0,.841Z" transform="translate(-94.015 -165.414)" fill="#b8191a"/>
    <path id="Tracciato_64887" data-name="Tracciato 64887" d="M334.453,691.369h-2.213V689.46a.421.421,0,0,0-.421-.421H319.311a8.141,8.141,0,0,0-6.44,3.151,8.138,8.138,0,0,0-6.44-3.151H293.926a.421.421,0,0,0-.421.421v1.909h-2.213a.421.421,0,0,0-.421.421v25.626a.421.421,0,0,0,.421.421h13.731a8.992,8.992,0,0,1,7.5,4.014l0,.005.021.028.017.02.022.022.027.022.022.017a.416.416,0,0,0,.045.027l.021.01.036.014.013.005.011,0,.036.008.017,0a.388.388,0,0,0,.115,0l.016,0,.037-.008.011,0,.013-.005.038-.015.018-.008a.419.419,0,0,0,.051-.03l.008-.006a.405.405,0,0,0,.039-.033l.013-.013a.435.435,0,0,0,.029-.033l.011-.015.008-.011a8.994,8.994,0,0,1,7.5-4.016h13.731a.421.421,0,0,0,.421-.421V691.79A.42.42,0,0,0,334.453,691.369Zm-15.141-1.489H331.4v24.5H319.311a8.139,8.139,0,0,0-6.019,2.65v-24A7.3,7.3,0,0,1,319.311,689.88Zm-24.965,0h12.085a7.3,7.3,0,0,1,6.019,3.156v24a8.136,8.136,0,0,0-6.019-2.65H294.346Zm10.677,27.115H291.712V692.21H293.5v22.6a.421.421,0,0,0,.421.421h12.506a7.3,7.3,0,0,1,6.019,3.156v1.992A9.826,9.826,0,0,0,305.023,716.995Zm29.009,0H320.721a9.831,9.831,0,0,0-7.429,3.38v-1.991a7.3,7.3,0,0,1,6.019-3.158h12.507a.421.421,0,0,0,.421-.421v-22.6h1.793Z" fill="#0060c1" stroke="#0060c1" stroke-width="0.5"/>
    <path id="Tracciato_64889" data-name="Tracciato 64889" d="M720.283,866.525h4.329a.421.421,0,1,0,0-.841h-4.329a.421.421,0,0,0,0,.841Z" transform="translate(-401.716 -165.414)" fill="#b8191a"/>
    <path id="Tracciato_64890" data-name="Tracciato 64890" d="M720.283,922.039H727.2a.421.421,0,0,0,0-.841h-6.916a.421.421,0,1,0,0,.841Z" transform="translate(-401.716 -217.399)" fill="#b8191a"/>
    <path id="Tracciato_64891" data-name="Tracciato 64891" d="M720.283,977.573H727.2a.421.421,0,0,0,0-.841h-6.916a.421.421,0,0,0,0,.841Z" transform="translate(-401.716 -269.402)" fill="#b8191a"/>
  </g>
</svg>
