<svg xmlns="http://www.w3.org/2000/svg" xmlns:xlink="http://www.w3.org/1999/xlink" width="253" height="93" viewBox="0 0 253 93">
  <defs>
    <clipPath id="clip-path">
      <rect id="Rettangolo_18" data-name="Rettangolo 18" width="253" height="93" fill="#fff"/>
    </clipPath>
  </defs>
  <g id="Raggruppa_5216" data-name="Raggruppa 5216" clip-path="url(#clip-path)">
    <path id="Tracciato_13368" data-name="Tracciato 13368" d="M39.83,31.96c-5.12-6.969-12.469-6.837-19.567-6.768-10,.1-16.862,3.936-18.182,11.941C.4,47.308.606,57.791,0,68.094H9.046c0-8.843.105-17.442-.046-26.037-.072-4.068,1.683-7.045,5.35-8.028a45.492,45.492,0,0,1,11.8-1.266,8.961,8.961,0,0,1,8.919,7.214,33.828,33.828,0,0,1,.694,7.639c.087,6.8.03,13.61.03,20.375h8.3c0-7.556-.4-14.826.166-22.021.283-3.612,1.326-8.127,3.754-10.409,4.953-4.655,11.716-4.078,17.626-1.768,5.48,2.142,6.555,7.52,6.587,12.919.041,7.08.01,14.161.01,21.348h7.734c0-7.914.326-15.548-.072-23.145-.682-13.043-5.561-18.384-18.159-19.648C53.92,24.484,46.08,24.8,39.83,31.96" transform="translate(0 -5.463)" fill="#fff"/>
    <path id="Tracciato_13369" data-name="Tracciato 13369" d="M113.4,28.816c0,8.909-.015,17.691,0,26.473.014,6.655,3.707,11.866,10.347,12.662a119.2,119.2,0,0,0,22.787.723,14.006,14.006,0,0,0,12.9-14.9c-.391-7.219-.267-14.475-.132-21.71.063-3.373-1.124-4.812-4.53-4.243-.973.162-1.966.209-3.031.318-.566,8.032-1.545,15.809-1.505,23.58.024,4.837-4.552,8.727-8.837,8.773-3.635.039-7.271.1-10.9.017a8.738,8.738,0,0,1-8.584-8.6c-.282-6.686-.733-13.375-.7-20.06.02-3.684-1.555-4.548-4.715-3.934-.987.191-1.94.554-3.105.9" transform="translate(-24.806 -6.06)" fill="#fff"/>
    <path id="Tracciato_13370" data-name="Tracciato 13370" d="M143.226,111.73c0-5.491.509-10.6-.2-15.532-.4-2.8-2.21-6.826-4.4-7.67-5.366-2.065-11.305-2.709-16.873.452-.652.37-1.794-.054-2.695-.2-4-.637-8-1.792-12-1.824-3.941-.032-6.843,2.159-8.235,6.27-2.087,6.164-1.147,12.28-.643,18.529h4.668c0-4.272-.134-8.309.034-12.334.21-5.039,2.649-7.071,7.961-6.98,5.014.085,6.019,1.3,6.223,7.051.144,4.032.479,8.057.734,12.171h5.116c0-4.25-.485-8.348.181-12.251.4-2.348,2.217-5.851,4.048-6.322,8.379-2.153,11.4,2.168,10.835,10-.212,2.916-.035,5.86-.035,8.991l5.284-.352" transform="translate(-21.334 -18.986)" fill="#fff"/>
    <path id="Tracciato_13371" data-name="Tracciato 13371" d="M141.248,6.824c-3.976,0-7.72-.772-10.985.148-9.066,2.554-17.968,5.716-26.841,8.9-1.289.462-2.068,2.337-3.083,3.559,1.541.428,3.272,1.532,4.59,1.166,5.087-1.416,9.966-3.584,15.064-4.945,6.989-1.866,13.645-6.179,21.509-2.005,3.348,1.777,4.8.148,4.87-3.8.019-1.055,0-2.11,0-3.166l1.41-.71C144.942,15.912,151.776,17.238,158,19.1a3.422,3.422,0,0,0,.365.134c2.312.409,5.305,3.038,6.684-.462,1.411-3.58-2.655-3.572-4.576-4.316-7.38-2.856-7.348-2.723-8-10.534-.1-1.185-1.211-2.984-2.217-3.282-5.643-1.671-7.905-.173-8.89,5.381-.088.5-.158,1-.126.8" transform="translate(-21.95 0)" fill="#fff"/>
    <path id="Tracciato_13372" data-name="Tracciato 13372" d="M213.618,111.72c0-5.274-.175-10.16.112-15.019a5.363,5.363,0,0,1,2.381-3.875c7.305-3.594,13.384.384,13.2,8.368-.08,3.438-.014,6.88-.014,10.516h5.98c0-4.718.052-9.323-.017-13.926-.052-3.584-1.011-6.8-4.213-8.959-5.766-3.884-11.884-2.141-17.858-.911a6.315,6.315,0,0,0-5.152,6.443c-.135,5.744-.037,11.5-.037,17.363Z" transform="translate(-45.493 -18.909)" fill="#fff"/>
    <path id="Tracciato_13373" data-name="Tracciato 13373" d="M274.135,91.205c.364-1.816,1.453-4.1-1.5-4.17-8.629-.2-17.266-.073-25.844-.073-.861,5.248-.861,5.248,9.344,5.795.137.215.394.432.391.646-.038,3.345-.173,6.688-.159,10.032.028,6.9,3.624,9.577,11.158,7.757-.641-1.544-.834-3.586-1.924-4.341-3.347-2.316-3.2-5.473-3.146-8.859.1-5.68.018-5.658,5.522-6.073,1.924-.146,3.837-.44,6.161-.714" transform="translate(-53.911 -19.014)" fill="#fff"/>
    <path id="Tracciato_13374" data-name="Tracciato 13374" d="M38.985,87.357v24.3c5.136.757,5.328.764,5.493-3.783.195-5.384.011-10.782,0-16.174-.013-4.827-.009-4.827-5.49-4.345" transform="translate(-8.528 -19.065)" fill="#fff"/>
    <path id="Tracciato_13375" data-name="Tracciato 13375" d="M187.217,68.17c11.848,0,24.016.223,36.169-.127,4.009-.116,8.511-1.318,9.932-5.888,3.093-9.954,3.905-20.092-.707-29.8-1.145-2.412-3.855-5.021-6.351-5.7-12.166-3.32-24.685-1.426-37.068-1.523-.652-.005-1.882,1.7-1.891,2.625-.124,13.266-.084,26.534-.084,40.417m8.491-35.562c7.917,0,16.19-.146,24.453.066,3.726.1,5.517,2.66,5.434,6.429-.1,4.684.055,9.377-.152,14.055a6.887,6.887,0,0,1-7.081,6.66c-6.485.1-12.974.132-19.456-.037-1.082-.028-3.043-1.195-3.06-1.873-.213-8.316-.138-16.64-.138-25.3" transform="translate(-40.953 -5.398)" fill="#fff"/>
    <path id="Tracciato_13376" data-name="Tracciato 13376" d="M290.276,101.577c6.98,0,13.426.044,19.869-.04,1.191-.016,2.857-.153,3.482-.909,2.87-3.474-.155-12.323-4.648-12.875a112.226,112.226,0,0,0-17.787-.659,6.985,6.985,0,0,0-7,6.491c-.578,5.139-1.35,10.335,1.883,15.134,1.418,2.1,2.809,3.4,5.516,3.316,5.184-.161,10.377-.028,15.566-.076,5.212-.048,7.414-2.827,6.6-8.48-1.57,0-4.12-.655-4.659.105-3.748,5.285-9.143,2.889-13.842,3.216-2.438.169-4.591-1.191-4.973-5.224m-.162-5.2c1.163-3.9,2.92-4.514,11.2-4.4,5.165.074,6.232.657,7.2,4.4Z" transform="translate(-62.054 -19.032)" fill="#fff"/>
    <path id="Tracciato_13377" data-name="Tracciato 13377" d="M82.548,102.032c-2.41,1.241-4.192,2.158-5.972,3.077-.685.353-1.372,1.026-2.05,1.016-4.7-.073-9.415-.116-14.08-.6-.9-.094-1.594-2.1-2.948-4.032H82.44c.237-2.084.559-3.741.592-5.4.113-5.84-.538-7.4-6.18-8.364a70.9,70.9,0,0,0-16.577-.534c-4.278.286-7.064,3.059-7.028,7.717.026,3.469.1,6.95.431,10.4.451,4.7,2.792,6.691,7.591,6.73q7.011.057,14.024-.03c5.968-.078,8.087-2.5,7.255-9.973M58.234,95.009c1.255-.773,2.472-2.13,3.773-2.215a122.77,122.77,0,0,1,13.014-.026c.655.027,1.7,1.259,1.751,1.988a2.57,2.57,0,0,1-1.752,1.851c-5.384.152-10.776.086-16.165.086Z" transform="translate(-11.648 -19.021)" fill="#fff"/>
    <path id="Tracciato_13378" data-name="Tracciato 13378" d="M178.362,112.1v.073c2.206,0,4.413.016,6.62,0,4.7-.041,7.048-1.662,7.518-6.187a75.465,75.465,0,0,0-.037-12.379c-.223-3.606-2.51-5.669-6.1-5.732-5.8-.1-11.612.081-17.419.148a4.118,4.118,0,0,0-4.462,3.927,111.925,111.925,0,0,0-1.07,11.423c-.125,5.92,2.794,8.687,8.716,8.73,2.077.015,4.155,0,6.233,0m-.594-5.784c-7.96.024-10.365-3.207-7.97-10.941a3.8,3.8,0,0,1,2.7-2.12c3.6-.3,7.229-.213,10.848-.221.491,0,1.337.19,1.416.464.866,3,2.226,6.03,2.206,9.047-.016,2.595-2.5,3.912-5.317,3.781-1.293-.06-2.591-.01-3.886-.01" transform="translate(-35.746 -19.215)" fill="#fff"/>
    <path id="Tracciato_13379" data-name="Tracciato 13379" d="M5.014,103.353c4.757,0,9.139.135,13.51-.033,5.823-.223,6.787-1.22,6.946-6.372.237-7.712-.92-9.734-6.773-10.057-6.035-.333-12.1-.073-18.367-.073v25.03H5.014ZM6.1,97.6v-4.97c3.861,0,7.59-.154,11.287.12.815.06,2.027,1.591,2.105,2.523.059.711-1.343,2.165-2.167,2.22C13.679,97.738,10,97.6,6.1,97.6" transform="translate(-0.072 -18.971)" fill="#fff"/>
    <path id="Tracciato_13380" data-name="Tracciato 13380" d="M305.513,49.99c0-4.709.069-8.522-.016-12.332-.128-5.792-3.144-9.929-8.785-11.168a78.49,78.49,0,0,0-32.681-.205c-4.741.958-7.691,3.978-8.273,8.534-.875,6.855-1.765,13.827-1.406,20.685.349,6.687,2.48,11.356,10.33,11.9,9.78.675,19.622.9,29.421.67,5.062-.12,10.119-1.926,11.647-7.641.535-2,.235-5.159-1.045-6.484-1.723-1.784-6.4.245-7.934,2.28-.918,1.222-2.5,2.644-3.86,2.723-7.58.448-15.212,1.009-22.766.547-5.54-.34-7.359-3.715-6.117-9.508Zm-42.962-7.968c0-7.533,1.59-9.308,8.345-9.412,6.966-.106,13.937-.074,20.9,0,3.093.034,5.56,1.053,5.95,4.675.542,5.048.027,5.445-5.1,5.258-8.264-.3-16.537-.366-24.805-.516-1.765-.032-3.532,0-5.29,0" transform="translate(-55.623 -5.396)" fill="#fff"/>
  </g>
</svg>
