<svg xmlns="http://www.w3.org/2000/svg" width="30.082" height="32.002" viewBox="0 0 30.082 32.002">
  <g id="Raggruppa_20277" data-name="Raggruppa 20277" transform="translate(-3280.72 -1717.483)">
    <g id="Raggruppa_20260" data-name="Raggruppa 20260" transform="translate(3290.385 1725.747)">
      <rect id="Rettangolo_146215" data-name="Rettangolo 146215" width="7.51" height="1.422" transform="translate(0 0)" fill="#b8191a"/>
    </g>
    <g id="Raggruppa_20261" data-name="Raggruppa 20261" transform="translate(3290.385 1730.606)">
      <rect id="Rettangolo_146216" data-name="Rettangolo 146216" width="14.74" height="1.422" transform="translate(0 0)" fill="#b8191a"/>
    </g>
    <g id="Raggruppa_20262" data-name="Raggruppa 20262" transform="translate(3290.385 1735.464)">
      <rect id="Rettangolo_146217" data-name="Rettangolo 146217" width="14.74" height="1.422" transform="translate(0 0)" fill="#b8191a"/>
    </g>
    <g id="Raggruppa_20269" data-name="Raggruppa 20269" transform="translate(3280.72 1717.483)">
      <g id="Raggruppa_20265" data-name="Raggruppa 20265" transform="translate(4.699 26.957)">
        <g id="Raggruppa_20264" data-name="Raggruppa 20264">
          <g id="Raggruppa_20263" data-name="Raggruppa 20263">
            <path id="Tracciato_64892" data-name="Tracciato 64892" d="M3353.933,2100.3h-20.338v-1.422h20.338a3.627,3.627,0,0,0,3.623-3.623h1.422A5.05,5.05,0,0,1,3353.933,2100.3Z" transform="translate(-3333.595 -2095.259)" fill="#0060c1"/>
          </g>
        </g>
      </g>
      <g id="Raggruppa_20266" data-name="Raggruppa 20266" transform="translate(3.988 0)">
        <path id="Tracciato_64893" data-name="Tracciato 64893" d="M3351.688,1818.9h-1.422v-24.86a.676.676,0,0,0-.675-.675h-21.9a.676.676,0,0,0-.675.675v24.86h-1.422v-24.86a2.1,2.1,0,0,1,2.1-2.1h21.9a2.1,2.1,0,0,1,2.1,2.1Z" transform="translate(-3325.595 -1791.938)" fill="#0060c1"/>
      </g>
      <g id="Raggruppa_20267" data-name="Raggruppa 20267" transform="translate(0 26.246)">
        <path id="Tracciato_64894" data-name="Tracciato 64894" d="M3285.419,2093.014a5.042,5.042,0,0,1-4.445-2.659,2.1,2.1,0,0,1,1.845-3.1h2.6v1.422h-2.6a.664.664,0,0,0-.578.328.671.671,0,0,0-.015.673,3.621,3.621,0,0,0,3.193,1.911Z" transform="translate(-3280.72 -2087.259)" fill="#0060c1"/>
      </g>
      <g id="Raggruppa_20268" data-name="Raggruppa 20268" transform="translate(4.699 26.246)">
        <path id="Tracciato_64895" data-name="Tracciato 64895" d="M3353.933,2093.014a5.038,5.038,0,0,1-4.891-3.807.684.684,0,0,0-.656-.526h-14.791v-1.422h14.791a2.106,2.106,0,0,1,2.036,1.6,3.623,3.623,0,0,0,7.135-.889h1.422A5.05,5.05,0,0,1,3353.933,2093.014Z" transform="translate(-3333.595 -2087.259)" fill="#0060c1"/>
      </g>
    </g>
  </g>
</svg>
