<svg xmlns="http://www.w3.org/2000/svg" width="33.617" height="33.617" viewBox="0 0 33.617 33.617">
  <g id="Raggruppa_20280" data-name="Raggruppa 20280" transform="translate(-370 -224)">
    <path id="Tracciato_60142" data-name="Tracciato 60142" d="M27.026,24.143H25.508l-.538-.519a12.512,12.512,0,1,0-1.345,1.345l.519.538v1.518l9.61,9.591,2.864-2.864Zm-11.532,0a8.649,8.649,0,1,1,8.649-8.649A8.638,8.638,0,0,1,15.494,24.143Z" transform="translate(367 221)" fill="#0060c1"/>
    <path id="Tracciato_60194" data-name="Tracciato 60194" d="M21.278,18.395H19.759l-.538-.519c1.884-2.191-3.537,3.229-1.345,1.345l.519.538v1.518l9.61,9.591,2.864-2.864Z" transform="translate(372.748 226.748)" fill="#b8191a"/>
    <circle id="Ellisse_8839" data-name="Ellisse 8839" cx="10.5" cy="10.5" r="10.5" transform="translate(372 226)" fill="#fff"/>
  </g>
</svg>
