<svg xmlns="http://www.w3.org/2000/svg" xmlns:xlink="http://www.w3.org/1999/xlink" width="51.172" height="43.752" viewBox="0 0 51.172 43.752"><defs><style>.a{fill:url(#a);}</style><linearGradient id="a" x1="0.5" x2="0.5" y2="1" gradientUnits="objectBoundingBox"><stop offset="0" stop-color="#9e99d5"/><stop offset="1" stop-color="#18186a"/></linearGradient></defs><g transform="translate(-290.449 -415.364)"><path class="a" d="M340.687,417.862a.934.934,0,0,0-.934.934v29.025H323.591a.933.933,0,0,0-.661.276l-2.286,2.32h-9.217l-2.283-2.32a.948.948,0,0,0-.665-.276H292.317V418.8a.934.934,0,1,0-1.868,0v29.959a.934.934,0,0,0,.934.934h16.7l2.283,2.316a.941.941,0,0,0,.665.276h10a.941.941,0,0,0,.665-.276l2.283-2.316h16.7a.934.934,0,0,0,.934-.934V418.8A.934.934,0,0,0,340.687,417.862Z" transform="translate(0 6.834)"/><path class="a" d="M292.543,452.63h16.308c.478,0,3.078.318,3.078,1.722a.932.932,0,1,0,1.864,0c0-1.4,2.6-1.722,3.078-1.722h16.308a.934.934,0,0,0,.934-.934V423.154a.934.934,0,1,0-1.868,0v27.609H316.89a4.821,4.821,0,0,1,.669-.385c2.391-.908,11.529-3.572,11.623-3.6a.932.932,0,0,0,.673-.9V416.3a.938.938,0,0,0-1.121-.915c-1.465.3-12.594,2.7-15.874,7.1-3.28-4.39-14.406-6.8-15.87-7.1a.943.943,0,0,0-.777.194.929.929,0,0,0-.344.721v29.585a.937.937,0,0,0,.672.9c.094.026,9.232,2.69,11.623,3.6a4.947,4.947,0,0,1,.781.392l-.093-.008H293.477V423.154a.934.934,0,1,0-1.868,0V451.7A.934.934,0,0,0,292.543,452.63Zm35.443-35.174v27.725c-2.189.643-8.989,2.652-11.092,3.452a9.056,9.056,0,0,0-3.1,2.2V424.951C313.793,421.8,322.076,418.809,327.986,417.456Zm-30.25,27.725V417.456c5.91,1.352,14.193,4.341,14.193,7.494V450.83a9.057,9.057,0,0,0-3.1-2.2C306.729,447.833,299.925,445.824,297.736,445.181Z" transform="translate(3.174 0)"/></g></svg>