<svg xmlns="http://www.w3.org/2000/svg" xmlns:xlink="http://www.w3.org/1999/xlink" width="46.582" height="59.967" viewBox="0 0 46.582 59.967"><defs><style>.a{fill:url(#a);}</style><linearGradient id="a" x1="0.5" x2="0.5" y2="1" gradientUnits="objectBoundingBox"><stop offset="0" stop-color="#d65c03"/><stop offset="1" stop-color="#4d220a"/></linearGradient></defs><g transform="translate(-289.725 -412.05)"><g transform="translate(289.725 424.733)"><path class="a" d="M322.825,463.3h-32.3a.8.8,0,0,1-.8-.8V416.819a.8.8,0,0,1,.8-.8h32.3a.8.8,0,0,1,.8.8v45.687A.8.8,0,0,1,322.825,463.3Zm-31.5-1.6h30.7V417.617h-30.7Z" transform="translate(-289.725 -416.02)"/></g><g transform="translate(296.066 418.391)"><path class="a" d="M324.81,461.319h-2.824a.8.8,0,1,1,0-1.6h2.025V415.632h-30.7v1.728a.8.8,0,0,1-1.6,0v-2.527a.8.8,0,0,1,.8-.8h32.3a.8.8,0,0,1,.8.8V460.52A.8.8,0,0,1,324.81,461.319Z" transform="translate(-291.71 -414.035)"/></g><g transform="translate(302.405 412.05)"><path class="a" d="M326.8,459.334h-2.546a.8.8,0,1,1,0-1.6H326V413.647H295.291v1.923a.8.8,0,0,1-1.6,0v-2.722a.8.8,0,0,1,.8-.8h32.3a.8.8,0,0,1,.8.8v45.687A.8.8,0,0,1,326.8,459.334Z" transform="translate(-293.694 -412.05)"/></g></g></svg>