<svg xmlns="http://www.w3.org/2000/svg" xmlns:xlink="http://www.w3.org/1999/xlink" width="51.414" height="60.258" viewBox="0 0 51.414 60.258"><defs><style>.a{fill:url(#a);}</style><linearGradient id="a" x1="0.5" x2="0.5" y2="1" gradientUnits="objectBoundingBox"><stop offset="0" stop-color="#2079d4"/><stop offset="1" stop-color="#004e9c"/></linearGradient></defs><g transform="translate(-3711.543 -1219.701)"><path class="a" d="M3758.254,1261.152l-11.746-3.977a21.868,21.868,0,0,0-2.111-3.773v-.367c2.732-1.774,3.712-4.847,4.064-7.046a5.022,5.022,0,0,0,3.73-4.741c.129-1.559-.227-2.649-1.063-3.24a2.324,2.324,0,0,0-1.112-.4,15.317,15.317,0,0,0,.394-3.67c.007-.314.016-.651.03-1.044a13.189,13.189,0,0,0-26.379-.022,14.681,14.681,0,0,0,.4,4.741,2.361,2.361,0,0,0-1.091.4c-.836.59-1.191,1.681-1.062,3.24a5.027,5.027,0,0,0,3.731,4.741c.355,2.2,1.336,5.271,4.063,7.046v.363a22.683,22.683,0,0,0-2.111,3.777l-11.746,3.977a6.914,6.914,0,0,0-4.7,6.554v11.311a.946.946,0,0,0,1.892,0v-11.311a5.022,5.022,0,0,1,3.417-4.764l10.312-3.493c-.029.1-.063.189-.091.284a.941.941,0,0,0,.235.916l4.468,4.575a.95.95,0,0,0,1.3.053l.594-.519,1.269,2.569-2.676,11.209a.947.947,0,0,0,.7,1.139,1.1,1.1,0,0,0,.22.026.948.948,0,0,0,.92-.727l2.755-11.542a.918.918,0,0,0-.072-.636l-1.642-3.322,2.111-1.839,2.111,1.839-1.643,3.322a.929.929,0,0,0-.072.636l2.755,11.542a.942.942,0,0,0,.917.727,1.088,1.088,0,0,0,.219-.026.946.946,0,0,0,.7-1.139l-2.676-11.209,1.271-2.569.595.519a.943.943,0,0,0,1.294-.053l4.474-4.575a.936.936,0,0,0,.229-.916c-.025-.095-.06-.186-.091-.284l10.316,3.493a5.022,5.022,0,0,1,3.417,4.764v11.311a.944.944,0,0,0,1.888,0v-11.311A6.909,6.909,0,0,0,3758.254,1261.152Zm-25.751,2.111-3.459-3.538a19.618,19.618,0,0,1,1.646-3.7,5.136,5.136,0,0,0,1.993,2.153l3.4,1.968Zm1.127-6.721a3.288,3.288,0,0,1-1.638-2.838v-1.2a.938.938,0,0,0-.488-.825c-3.947-2.18-3.776-8.125-3.772-8.185a.946.946,0,0,0-.908-.977.929.929,0,0,0-.98.9c0,.038,0,.219,0,.473a3.208,3.208,0,0,1-1.653-2.8c-.076-.939.087-1.408.269-1.537.234-.166.791-.038,1.029.068a.946.946,0,0,0,1.264-1.226,11.052,11.052,0,0,1-.8-5.509,11.3,11.3,0,0,1,22.6-.034c-.011.367-.022.708-.034,1.029a10.722,10.722,0,0,1-.764,4.514.949.949,0,0,0,1.257,1.23c.245-.11.8-.238,1.032-.072.182.129.345.6.27,1.537a3.226,3.226,0,0,1-1.65,2.8c0-.253,0-.435,0-.473a.953.953,0,0,0-.98-.9.943.943,0,0,0-.908.977c0,.061.174,6.005-3.776,8.185a.944.944,0,0,0-.488.825v1.2a3.287,3.287,0,0,1-1.639,2.838l-3.617,2.093Zm8.367,6.721-3.58-3.118,3.4-1.968a5.129,5.129,0,0,0,2-2.153,19.591,19.591,0,0,1,1.642,3.7Z" transform="translate(0 0)"/><path class="a" d="M3732.255,1231.552a.942.942,0,0,0-.942-.942c-9.892,0-12.922-7.337-13.051-7.655a.944.944,0,1,0-1.759.688c.034.087,3.587,8.855,14.81,8.855A.945.945,0,0,0,3732.255,1231.552Z" transform="translate(13.628 7.387)"/></g></svg>