<svg xmlns="http://www.w3.org/2000/svg" xmlns:xlink="http://www.w3.org/1999/xlink" width="52.125" height="59.967" viewBox="0 0 52.125 59.967"><defs><style>.a{fill:url(#a);}</style><linearGradient id="a" x1="0.5" x2="0.5" y2="1" gradientUnits="objectBoundingBox"><stop offset="0" stop-color="#8b8b8b"/><stop offset="1"/></linearGradient></defs><g transform="translate(-288.879 -412.116)"><path class="a" d="M330.944,447.635a.8.8,0,0,0-.8.8v22.035H300.756l.016-9.465a.8.8,0,0,0-.8-.8h-9.481v-46.48H330.14v7.512a.8.8,0,0,0,1.609,0V412.92a.8.8,0,0,0-.8-.8H289.682a.8.8,0,0,0-.8.8v48.089c0,.023.023.035.023.058a.787.787,0,0,0,.212.508l10.27,10.273a.806.806,0,0,0,.569.235h30.992a.8.8,0,0,0,.8-.8V448.439A.8.8,0,0,0,330.944,447.635ZM299.16,461.813l-.01,7.525-7.529-7.525Z" transform="translate(0 0)"/><path class="a" d="M327.011,441.965l-8.79-8.786a1.166,1.166,0,0,0-1.348-.167l-1.023-1.023a11.5,11.5,0,1,0-3.166,3.166l1.023,1.023a1.166,1.166,0,0,0,.167,1.348l8.786,8.79a3.076,3.076,0,1,0,4.35-4.35Zm-27.72-9.378a9.891,9.891,0,1,1,6.994,2.9A9.829,9.829,0,0,1,299.291,432.586Zm15.131,1.139c.151-.151.261-.331.4-.489l.792.791-.891.891-.792-.791C314.091,433.986,314.271,433.876,314.422,433.725Zm11.45,11.45a1.47,1.47,0,0,1-2.072,0l-8.529-8.526,2.075-2.075,8.526,8.529A1.464,1.464,0,0,1,325.873,445.175Z" transform="translate(13.095 4.37)"/><path class="a" d="M302.225,415.559h-10.6a.8.8,0,0,0,0,1.609h10.6a.8.8,0,0,0,0-1.609Z" transform="translate(4.306 7.634)"/><path class="a" d="M291.624,419.419h9.137a.8.8,0,0,0,0-1.609h-9.137a.8.8,0,0,0,0,1.609Z" transform="translate(4.306 12.625)"/><path class="a" d="M291.624,421.669h10.6a.8.8,0,0,0,0-1.609h-10.6a.8.8,0,0,0,0,1.609Z" transform="translate(4.306 17.614)"/><path class="a" d="M320.39,422.311H291.624a.8.8,0,0,0,0,1.609H320.39a.8.8,0,1,0,0-1.609Z" transform="translate(4.306 22.605)"/><path class="a" d="M320.39,424.562H291.624a.8.8,0,0,0,0,1.609H320.39a.8.8,0,1,0,0-1.609Z" transform="translate(4.306 27.596)"/><path class="a" d="M312.627,426.812h-17.5a.8.8,0,0,0,0,1.609h17.5a.8.8,0,1,0,0-1.609Z" transform="translate(12.069 32.585)"/></g></svg>