<svg xmlns="http://www.w3.org/2000/svg" xmlns:xlink="http://www.w3.org/1999/xlink" width="43.516" height="60.823" viewBox="0 0 43.516 60.823"><defs><style>.a{fill:url(#a);}</style><linearGradient id="a" x1="0.5" x2="0.5" y2="1" gradientUnits="objectBoundingBox"><stop offset="0" stop-color="#ce344e"/><stop offset="1" stop-color="#6a1826"/></linearGradient></defs><g transform="translate(-291.838 -414.198)"><path class="a" d="M334.918,461.567a46.323,46.323,0,0,1-4.929-20.733,16.881,16.881,0,0,0-12.434-16.358,5.918,5.918,0,1,0-7.912.008A16.2,16.2,0,0,0,297.2,440.326v.508a46.323,46.323,0,0,1-4.929,20.733,4.008,4.008,0,0,0,3.58,5.815h10.841v.739a6.9,6.9,0,0,0,13.8,0v-.739h10.841a4.008,4.008,0,0,0,3.58-5.815Zm-21.325-45.272a3.82,3.82,0,1,1-3.819,3.82A3.823,3.823,0,0,1,313.593,416.295Zm4.807,51.827a4.807,4.807,0,1,1-9.614,0v-.739H318.4Zm14.568-3.748a1.876,1.876,0,0,1-1.63.912H295.853a1.916,1.916,0,0,1-1.71-2.777,48.35,48.35,0,0,0,5.156-21.674v-.508a14.295,14.295,0,0,1,14.3-14.3h.269c7.736.143,14.03,6.786,14.03,14.8a48.34,48.34,0,0,0,5.156,21.674A1.874,1.874,0,0,1,332.969,464.373Z" transform="translate(0 0)"/><path class="a" d="M306.291,417.44a12.19,12.19,0,0,0-12.173,12.177,1.048,1.048,0,0,0,2.1,0,10.09,10.09,0,0,1,10.076-10.081,1.048,1.048,0,1,0,0-2.1Z" transform="translate(7.302 10.381)"/><path class="a" d="M301.6,423.079a1.048,1.048,0,0,0-2.084-.214,24.517,24.517,0,0,0,3.605,13.774,1.049,1.049,0,0,0,1.811-1.059A22.846,22.846,0,0,1,301.6,423.079Z" transform="translate(24.439 24.747)"/></g></svg>