<svg xmlns="http://www.w3.org/2000/svg" xmlns:xlink="http://www.w3.org/1999/xlink" width="43.518" height="60.872" viewBox="0 0 43.518 60.872"><defs><style>.a{fill:url(#a);}</style><linearGradient id="a" x1="0.5" x2="0.5" y2="1" gradientUnits="objectBoundingBox"><stop offset="0" stop-color="#178255"/><stop offset="1" stop-color="#0a4029"/></linearGradient></defs><g transform="translate(-290.365 -412.134)"><g transform="translate(290.366 412.134)"><path class="a" d="M333.067,473.005H291.181a.816.816,0,0,1-.815-.818V412.952a.816.816,0,0,1,.815-.818h41.886a.816.816,0,0,1,.815.818v59.235A.816.816,0,0,1,333.067,473.005ZM292,471.372h40.25V413.767H292Z" transform="translate(-290.366 -412.134)"/></g><g transform="translate(296.554 421.744)"><path class="a" d="M300.486,416.707h-7.411a.818.818,0,0,1,0-1.636h7.411a.818.818,0,0,1,0,1.636Z" transform="translate(-292.257 -415.071)"/><g transform="translate(0 14.702)"><path class="a" d="M322.269,421.2H293.075a.816.816,0,1,1,0-1.633h29.194a.816.816,0,1,1,0,1.633Z" transform="translate(-292.257 -419.564)"/></g><g transform="translate(0 22.051)"><path class="a" d="M322.269,423.443H293.075a.816.816,0,1,1,0-1.633h29.194a.816.816,0,1,1,0,1.633Z" transform="translate(-292.257 -421.81)"/></g><g transform="translate(0 29.4)"><path class="a" d="M322.269,425.689H293.075a.816.816,0,1,1,0-1.633h29.194a.816.816,0,1,1,0,1.633Z" transform="translate(-292.257 -424.056)"/></g><g transform="translate(22.866 40.018)"><path class="a" d="M306.7,428.934H300.06a.816.816,0,0,1,0-1.633H306.7a.816.816,0,1,1,0,1.633Z" transform="translate(-299.245 -427.301)"/></g></g></g></svg>