<svg xmlns="http://www.w3.org/2000/svg" xmlns:xlink="http://www.w3.org/1999/xlink" width="174" height="64" viewBox="0 0 174 64"><defs><style>.a{fill:#213169;}.b{clip-path:url(#a);}</style><clipPath id="a"><rect class="a" width="174" height="64"/></clipPath></defs><g class="b"><path class="a" d="M27.383,29.776c-3.52-4.791-8.572-4.7-13.452-4.653-6.876.068-11.592,2.706-12.5,8.209C.277,40.327.417,47.534,0,54.617H6.219c0-6.079.073-11.991-.032-17.9-.049-2.8,1.157-4.843,3.678-5.519a31.275,31.275,0,0,1,8.109-.87,6.16,6.16,0,0,1,6.132,4.959,23.256,23.256,0,0,1,.477,5.252c.06,4.677.02,9.357.02,14.007h5.707c0-5.195-.272-10.192.114-15.139.194-2.483.911-5.587,2.581-7.156,3.405-3.2,8.055-2.8,12.117-1.215,3.768,1.473,4.507,5.17,4.528,8.881.028,4.868.007,9.735.007,14.676h5.317c0-5.441.224-10.689-.049-15.912-.469-8.967-3.823-12.639-12.484-13.507-5.373-.539-10.763-.318-15.059,4.6" transform="translate(0 -11.56)"/><path class="a" d="M113.4,28.467c0,6.125-.01,12.162,0,18.2.01,4.575,2.548,8.157,7.113,8.7a81.946,81.946,0,0,0,15.666.5,9.629,9.629,0,0,0,8.869-10.242c-.269-4.963-.184-9.951-.091-14.925.044-2.319-.773-3.308-3.115-2.917-.669.112-1.352.144-2.084.219-.389,5.522-1.062,10.868-1.035,16.21a6.348,6.348,0,0,1-6.075,6.031c-2.5.027-5,.068-7.5.012a6.007,6.007,0,0,1-5.9-5.909c-.194-4.6-.5-9.195-.479-13.791.013-2.532-1.069-3.126-3.241-2.7-.678.132-1.334.381-2.135.615" transform="translate(-52.494 -12.823)"/><path class="a" d="M128.943,103.936c0-3.775.35-7.286-.136-10.678-.276-1.927-1.519-4.693-3.028-5.273-3.689-1.42-7.772-1.863-11.6.31-.448.254-1.233-.037-1.852-.136-2.751-.438-5.5-1.232-8.25-1.254-2.71-.022-4.7,1.484-5.661,4.311-1.435,4.238-.788,8.442-.442,12.738h3.209c0-2.937-.092-5.712.023-8.479.144-3.464,1.821-4.861,5.473-4.8,3.447.059,4.138.892,4.278,4.847.1,2.772.329,5.539.5,8.367h3.517c0-2.922-.334-5.739.125-8.422.276-1.614,1.524-4.022,2.783-4.346,5.76-1.48,7.84,1.49,7.449,6.874-.146,2-.024,4.029-.024,6.181l3.632-.242" transform="translate(-45.146 -40.178)"/><path class="a" d="M128.463,4.691c-2.733,0-5.307-.531-7.552.1-6.233,1.756-12.352,3.929-18.453,6.115-.886.317-1.422,1.607-2.119,2.447,1.059.294,2.249,1.053,3.155.8,3.5-.974,6.851-2.464,10.356-3.4,4.8-1.283,9.381-4.248,14.787-1.379,2.3,1.221,3.3.1,3.348-2.61.013-.725,0-1.451,0-2.176l.969-.488c-1.954,6.835,2.744,7.747,7.025,9.03a2.352,2.352,0,0,0,.251.092c1.589.281,3.647,2.089,4.6-.317.97-2.461-1.826-2.456-3.146-2.967-5.073-1.964-5.052-1.872-5.5-7.242A3.035,3.035,0,0,0,134.661.444c-3.879-1.149-5.435-.119-6.111,3.7-.061.343-.108.688-.086.548" transform="translate(-46.449 0)"/><path class="a" d="M211.851,103.819c0-3.626-.12-6.985.077-10.325a3.687,3.687,0,0,1,1.637-2.664c5.022-2.471,9.2.264,9.074,5.753-.055,2.364-.01,4.73-.01,7.229h4.111c0-3.243.035-6.409-.012-9.574-.036-2.464-.695-4.676-2.9-6.159-3.964-2.67-8.17-1.472-12.277-.626a4.341,4.341,0,0,0-3.542,4.429c-.093,3.949-.025,7.9-.025,11.937Z" transform="translate(-96.27 -40.014)"/><path class="a" d="M265.481,89.866c.25-1.249,1-2.819-1.032-2.867-5.932-.14-11.87-.05-17.767-.05-.592,3.608-.592,3.608,6.424,3.984.094.148.271.3.269.444-.026,2.3-.119,4.6-.11,6.9.019,4.741,2.492,6.584,7.671,5.333-.44-1.061-.573-2.465-1.323-2.984-2.3-1.592-2.2-3.762-2.163-6.09.068-3.9.012-3.89,3.8-4.175,1.323-.1,2.638-.3,4.235-.491" transform="translate(-114.083 -40.237)"/><path class="a" d="M38.985,87.293V104c3.531.52,3.663.525,3.776-2.6.134-3.7.008-7.412,0-11.119-.009-3.319-.006-3.319-3.774-2.987" transform="translate(-18.047 -40.345)"/><path class="a" d="M187.215,54.577c8.145,0,16.51.154,24.865-.087,2.756-.079,5.851-.906,6.828-4.048,2.126-6.843,2.685-13.813-.486-20.488a7.9,7.9,0,0,0-4.366-3.92c-8.364-2.282-16.97-.98-25.483-1.047-.448,0-1.294,1.172-1.3,1.8-.085,9.12-.058,18.242-.058,27.785m5.838-24.448c5.443,0,11.13-.1,16.811.045,2.561.067,3.793,1.829,3.736,4.42-.071,3.22.038,6.447-.1,9.663a4.735,4.735,0,0,1-4.868,4.579c-4.458.069-8.919.091-13.376-.025-.744-.019-2.092-.821-2.1-1.288-.146-5.717-.1-11.439-.1-17.393" transform="translate(-86.663 -11.423)"/><path class="a" d="M288.212,97.022c4.8,0,9.23.03,13.66-.027.819-.011,1.964-.105,2.394-.625,1.973-2.388-.106-8.471-3.2-8.851a77.153,77.153,0,0,0-12.228-.453,4.8,4.8,0,0,0-4.813,4.463c-.4,3.533-.928,7.105,1.294,10.4.975,1.446,1.931,2.337,3.792,2.279,3.564-.111,7.134-.019,10.7-.052,3.583-.033,5.1-1.943,4.535-5.83-1.08,0-2.833-.45-3.2.073-2.577,3.633-6.285,1.986-9.516,2.211-1.676.116-3.156-.819-3.419-3.591m-.111-3.578c.8-2.678,2.008-3.1,7.7-3.022,3.551.051,4.284.452,4.947,3.022Z" transform="translate(-131.316 -40.275)"/><path class="a" d="M73.391,97.319c-1.657.853-2.882,1.483-4.105,2.115-.471.243-.943.705-1.409.7-3.231-.05-6.472-.079-9.679-.414-.617-.064-1.1-1.445-2.026-2.772H73.316c.163-1.433.385-2.572.407-3.715.078-4.015-.37-5.085-4.248-5.75a48.745,48.745,0,0,0-11.4-.367,4.86,4.86,0,0,0-4.832,5.305c.018,2.385.07,4.778.3,7.149.31,3.229,1.92,4.6,5.219,4.627q4.82.039,9.641-.02c4.1-.054,5.56-1.716,4.987-6.856M56.676,92.49c.863-.532,1.7-1.464,2.594-1.523a84.4,84.4,0,0,1,8.947-.018c.451.019,1.169.865,1.2,1.367a1.767,1.767,0,0,1-1.2,1.272c-3.7.1-7.408.059-11.113.059Z" transform="translate(-24.649 -40.251)"/><path class="a" d="M173.689,104.514v.05c1.517,0,3.034.011,4.551,0,3.229-.028,4.846-1.143,5.168-4.254a51.879,51.879,0,0,0-.026-8.51,3.914,3.914,0,0,0-4.191-3.941c-3.99-.07-7.983.056-11.975.1a2.831,2.831,0,0,0-3.068,2.7,76.944,76.944,0,0,0-.736,7.853c-.086,4.07,1.921,5.972,5.992,6,1.428.01,2.857,0,4.285,0m-.408-3.977c-5.472.017-7.126-2.2-5.479-7.521a2.612,2.612,0,0,1,1.858-1.458c2.473-.2,4.97-.147,7.457-.152.337,0,.919.131.974.319.6,2.06,1.53,4.146,1.517,6.219-.011,1.784-1.72,2.689-3.655,2.6-.889-.041-1.781-.007-2.671-.007" transform="translate(-75.645 -40.661)"/><path class="a" d="M3.55,98.155c3.27,0,6.283.093,9.288-.023,4-.154,4.666-.838,4.775-4.38.163-5.3-.632-6.692-4.657-6.914-4.149-.229-8.319-.05-12.627-.05V104H3.55ZM4.3,94.2V90.782c2.654,0,5.218-.106,7.76.082.56.041,1.393,1.094,1.447,1.735.041.489-.923,1.488-1.49,1.526-2.509.17-5.035.074-7.717.074" transform="translate(-0.153 -40.145)"/><path class="a" d="M289.5,42.076c0-3.238.047-5.859-.011-8.478-.088-3.982-2.161-6.826-6.039-7.678a53.96,53.96,0,0,0-22.467-.141,6.6,6.6,0,0,0-5.687,5.867,80.179,80.179,0,0,0-.967,14.22c.24,4.6,1.7,7.807,7.1,8.18,6.724.464,13.489.62,20.226.461,3.48-.083,6.957-1.324,8.007-5.253.368-1.377.162-3.546-.718-4.458-1.184-1.227-4.4.169-5.454,1.568a4.45,4.45,0,0,1-2.654,1.872,130.7,130.7,0,0,1-15.651.376c-3.809-.234-5.059-2.554-4.205-6.536ZM259.963,36.6c0-5.179,1.093-6.4,5.737-6.47,4.789-.073,9.581-.051,14.37,0,2.126.023,3.822.724,4.09,3.214.373,3.471.019,3.743-3.508,3.615-5.681-.208-11.368-.252-17.053-.355-1.213-.022-2.428,0-3.637,0" transform="translate(-117.706 -11.419)"/></g></svg>