<svg xmlns="http://www.w3.org/2000/svg" width="688.042" height="100.975" viewBox="0 0 688.042 100.975"><defs><style>.a{opacity:0.5;}.b{fill:#0f6bb9;}</style></defs><g class="a" transform="translate(0 0)"><g transform="translate(59.5 71.022)"><path class="b" d="M1078.693,3256.231h7.045l1.017,3.146h.556v-3.146s.266-.043.248-.037,0-.769,0-.769h.278v-.072h.357v.672l.327.327h.78v-.242h.188v-.757h.908v-2.56h.581v-.285l.139.455h.134v.158h.187v-.327h.188v2.584H1092v.8h.211v5.3l.321.254h.436v-.535l.29-.109h.536l.462.535v-1.044h.246l.082.89h.371v-.636h.472v-.535H1096v.926h1.289v-.545l.191-.145h.235v.708h.437v-.473h.2v.264h.381v.282h2.088a2.5,2.5,0,0,1,.163-.454c.037-.009.282,0,.282,0v.172l.254-.182h.771v.3h.364v-.354h.435v-.354h.427v.636h.209v-.218h.608v-.445h.1v.309h.263l.081-.3v.482l.368.167h.3v-.254h.258l.191.191.134-.134h.792v-.125h.2v-.345h.322v.214h.39v.422h.445v-.635h.363v.622h.967v-.614h.368v.582h.848v-.322h.513v.277h.195l.2.309h.259v-.391h.186v-.177h.363v-.468h.123v.917l.217.218h.373v-.563h-.213l.454-.6v.314h.326v.327h.268v-.282h.119v.735h2.151l.082-.145.218.218h2.233v-.091h.3v-.146h.176v-.359h.3v.319h.173v-.222h.408v-.691h.109v.49h.177v.522h-.137v.227h.3v.245h.571v.3h.377v-.223l.2.354h.191v-.236l.082.327h.236v-.327h.124v.349h.212v-.3h.173v.214h.449v.114h.558v.649h.355v.436h.536v.309h.535v.154h.473v-.149h.317l.15.149v.187h1.035l.188-.188h.47l-.2,1.732.541.372-.259,1.063h.817l1.1.585,1.371-.7v-1.207l.132,1.234.907.554h.273l.286-.335h.322l.327.327.33-.01-.433.435v1.481h.465l.377.363h.327v-1.035h.281l.218-.254v-.842h-.3v-.215h.4l1.168-.69h.314l.257.257.433-.432h.479v-.769h.393v-3.056l.52.35.16-1.467v4.062h.776v-.79h.263v.7h.8l1.929-2.374,1.161-.1.89.49h.4v-.944h.391l.862.626a7.392,7.392,0,0,0,.654-.436c-.036-.008,1.933,1.054,1.933,1.054h.818s-.064-.436,0-.436.563.118.563.118l.453-.218.337.254h6l.517-.518h1.244l-.127-.127h.327v.218h1.607v.118h.518v-1.906l-.458-.458.258-.259v-.981h.29v-3.123l-.213-.213v-.708h-.168l-.191-.191.2-.2h.5v-.363h-.178v-.168h.218v-1.33l.1,1v-1.348h.294v-.368s-.254-.158.122-.517a2.694,2.694,0,0,0,.513-1.248s-.277-.1,0-.427a7.908,7.908,0,0,0,.264-2.2,8.2,8.2,0,0,0,.122,2.265c.2.182.072.35,0,.382a2.1,2.1,0,0,0,.571,1.361s.266.351,0,.376v.351h.151v.685h-.146v.556l.314.157v-1.064l.188,1.264h.213v.757h.254v.168h-.34l-.248.25v.223h.291v.37l-.215.215v3.034h.239v.333h-.139v.715h.115v.217h.442v.188l-.469.469v.245h9.486v-.144h.678l.284-.284.37.357h.465v-2.748l.763-.563v-.423l.085.429.659.684v2.766h1.852l.466-.757.284.683h.279v-.368H1180l.245.245,1.183-.717h.853v-.957h.363v.37h2.149l.1.1h.944l.865-1.792h3.462v-.121h.5v-.369l.351.49h.266v-.532l.3-.17.345.212v.448h.387v-.321h.23v-.327l.32.309h.436v-.194h.272v.206h.284v-.212h.2v.593h.2v.441h-.236v.328h.557v-1.525l.134.333.442-.381v.623h.332V3258l.3.224v.43l.49-.285v.739h.255v-.533h.1v.328h.611v-.89l.418.4.351-.339v.539l.321-.019,1.979-4.176h13.64v23.748h-135.26Z" transform="translate(-1078.693 -3248.21)"/><g transform="translate(83.825 1.035)"><path class="b" d="M1586.078,3254.633a.161.161,0,1,1-.16-.162A.161.161,0,0,1,1586.078,3254.633Z" transform="translate(-1585.756 -3254.471)"/></g><g transform="translate(59.914 13.77)"><path class="b" d="M1441.54,3331.716a.212.212,0,1,1-.212-.212A.211.211,0,0,1,1441.54,3331.716Z" transform="translate(-1441.117 -3331.504)"/></g><g transform="translate(13.381 9.01)"><rect class="b" width="0.391" height="0.218"/></g><g transform="translate(13.381 9.981)"><rect class="b" width="0.391" height="0.218"/></g><g transform="translate(13.381 10.998)"><rect class="b" width="0.391" height="0.218"/></g><g transform="translate(13.381 11.987)"><rect class="b" width="0.391" height="0.218"/></g><g transform="translate(56.695 19.495)"><rect class="b" width="0.26" height="0.69"/></g><g transform="translate(12.135 4.971)"><rect class="b" width="0.345" height="0.472"/></g><g transform="translate(11.448 1.085)"><path class="b" d="M1149.194,3258.759v-3.985a2.763,2.763,0,0,1-.393.4,4.907,4.907,0,0,0-.7.391c-.073.092-.163.218-.163.218a1.537,1.537,0,0,1,.172.218c0,.028-.028.264.009.264,0,0-.009-.11.227-.227s.164-.019.354-.236a2.121,2.121,0,0,1,.427-.363v3.323Z" transform="translate(-1147.942 -3254.774)"/></g><g transform="translate(83.235 8.311)"><path class="b" d="M1582.188,3301.711h1.185s-.011-2.578,0-2.578a.645.645,0,0,0-.647-.648c-.623,0-.538.648-.538.648Z" transform="translate(-1582.184 -3298.485)"/></g><g transform="translate(83.635 9.418)"><rect class="b" width="0.408" height="0.849"/></g><g transform="translate(83.208 9.924)"><rect class="b" width="1.302" height="0.116"/></g><g transform="translate(83.208 10.862)"><rect class="b" width="1.42" height="0.077"/></g><g transform="translate(83.684 10.658)"><rect class="b" width="0.304" height="0.243"/></g></g><g transform="translate(189.317 80.59)"><path class="b" d="M1919.738,3307.932v.355h.1l-.251.252v17.932H1864.4V3308h-.433v-.256l1.3-.591h11.956l.689,1.5-.294.3v.571h28.853v-.867l1.434-2.56h10.856l1.41,1.521v.324Z" transform="translate(-1863.963 -3306.086)"/><g transform="translate(40.629 9.531)"><path class="b" d="M2111.677,3367.9s-.474.08-.585,0-.4-.3-.594,0-.627,1.069-.627,1.069l-.073.39-.067.068.343.039.02-.193.043-.435.478-.7a.208.208,0,0,1,.342-.083,1.727,1.727,0,0,0,.777.2c.048,0,.078.357.078.357a3.461,3.461,0,0,0-1.111,1.839l-.164.512h.3l.154-.709.55-.9.608-.736a.386.386,0,0,1,.541-.183,1.357,1.357,0,0,0,.8.164l-.053.381-.2.131-.1.244.169.143.232-.049.038-.207.217-.063v-.405a1.823,1.823,0,0,0,.909-.058c.265-.164.623-.13.657.2s.145.941-.16.946-.811-.044-1.027.222-.464.826-.526.84h.443l-.01-.308.271-.3.068-.116,1.087-.183s.13.014.091-.411,0-.6.227-.376.459.618.125.763a7.474,7.474,0,0,1-.791.352.313.313,0,0,0-.27.246c-.029.088-.145.367-.145.367h.323l.1-.41s.04-.092.266-.092a3.14,3.14,0,0,0,.883-.444s.416-.13.4-.8.164-1.507.409-1.232a.881.881,0,0,1,.02,1.373c-.59.7.116.691-.611.884s-.708.425-.708.425a2.079,2.079,0,0,1,.675-.149.767.767,0,0,0,.7-.675c0-.284.27-.464.43-.605s.805-1.455-.5-1.539a2.051,2.051,0,0,0-1.667-.784s-.013-.586-.193-.689c0,0,1,.052.67-.386l-.084-.032-.007-.8-.657-.238.109-.335.1-.051v-.174l-.161-.129-.027-.238-.237-.09-.1.057-.084.252-.187.109-.02.148.187.123.123.354-.463.335-.007.366-.341-.109.09-.618-.135-.341-.5-.328-.2.052-.025.258-1.075.032-.064.115.1.213.116.18.342.1.045.264s.1.161-.186.425A3.5,3.5,0,0,0,2111.677,3367.9Z" transform="translate(-2109.73 -3363.738)"/><g transform="translate(4.031 1.924)"><path class="b" d="M2134.348,3375.376h.245l.077.3.09.032.033.3-.168.044-.1.328h-.219l-.063-.116-.13-.038.063-.309.1-.036Z" transform="translate(-2134.116 -3375.376)"/></g><g transform="translate(0.019 7.137)"><g transform="translate(0.58)"><rect class="b" width="6.192" height="0.509"/></g><g transform="translate(0 0.509)"><path class="b" d="M2109.846,3409.99h7.353l-.94.914h-5.509Z" transform="translate(-2109.846 -3409.99)"/></g><g transform="translate(0.613 1.423)"><rect class="b" width="6.127" height="2.293"/></g></g></g><g transform="translate(8.104 9.465)"><g transform="translate(0.427 7.203)"><g transform="translate(0.581)"><rect class="b" width="6.191" height="0.509"/></g><g transform="translate(0 0.509)"><path class="b" d="M1915.569,3409.99h7.353l-.938.914h-5.51Z" transform="translate(-1915.569 -3409.99)"/></g><g transform="translate(0.613 1.423)"><rect class="b" width="6.127" height="2.293"/></g></g><path class="b" d="M1919.321,3366.787s.063.567.384.192c.434-.507.835-.1,1.038.251a1.489,1.489,0,0,0,.318.429l-.106.155a4.8,4.8,0,0,1-.468-.627.352.352,0,0,0-.575-.111c-.221.251-.144.3,0,.294s.57-.087.749.256.835,1.342.835,1.342l-.241.058-.222-.3-.145-.4-.1-.067-.168-.415a.567.567,0,0,0-.661-.241,8.625,8.625,0,0,1-1.545.208c-.54.019-.964.493-.739.7a1.428,1.428,0,0,1,.328.478l-.3.03-.28-.343-.053-.521-.362.3v.729l-.087.063.092.535.139.315.218.265.038.174h-.454l-.246-.377-.034-.439-.14-.154-.073-.367-.236-.024v-.754s-.5-.323-.594.087a4.364,4.364,0,0,1-.169.913c-.111.164.024.227.116.27s.135.149.28.178.29.049.29.049l.159.69-.242.039-.091-.391-.4-.2-.1-.115-.247-.059-.149-.154-.4-.159s-.28-.053-.015-.3.228-.371.043-.512-.709-.439-.734-.985a.572.572,0,0,0-.386.865,9.21,9.21,0,0,1,.589,1.139c.053.193.353.3.589.41a3.018,3.018,0,0,1,.637.492c0,.016-.053.01-.463-.154a4.451,4.451,0,0,1-.942-.458,7.972,7.972,0,0,1-.927-1.354s-.5-1.262.936-1.223a1.264,1.264,0,0,1,1.4-.893l.073-.5-.019-.172.368.053-.02-.236-.714-.7s-.314.362-.4.439-.6.551-.6.551l-.131-.087.183-.134.521-.662.391-.507s.271-.381.58-.372l.009-.255-.116-.2.083-.43.458-.048.149.323.01.449-.314.019.019.221a.872.872,0,0,1,.419.638c0,.387-.009.439-.009.439l.333-.048-.271.212.019.343.391.144.107.112h.169s.072-.3.072-.319-.053-.435-.053-.435l-.1-.121-.276.039.2-.241a1.11,1.11,0,0,0-.067-.218.861.861,0,0,0-.178-.111s-.059-1.062.409-1.172.637.164.666.266.4.019.468.139a.456.456,0,0,0,.349.2c.087-.015.391-.048.328.091s-.03.493-.4.435-.531-.073-.478.086a.667.667,0,0,0,.285.3A3.577,3.577,0,0,1,1919.321,3366.787Z" transform="translate(-1912.984 -3363.339)"/></g></g><g transform="translate(426.366 68.535)"><g transform="translate(0 1.641)"><path class="b" d="M3297.882,3256.367h.976l.446.187v-.723a.3.3,0,0,1,.325-.3v-.2h-.419l.482-.054v-.532h-.025v-.14h.079v-.158h.015v1.073a.3.3,0,0,1,.2.257h.445l.194-.193h.515v-.288h.378v.285h.268v-.08h-.082v-.031h.094v-.441h-.086v-.075h.14v-.14h-.044v-.057h.723v-.882h.014v-.073h-.065v-.045h.351v.051h-.127v.067h.024v.552h.073v.339h.172v-1.112h-.086v-.053h.6v.07h-.1v.085h-.083v.118h.08v.063h-.085v.125h.091v.717h.088v-.255h.123v.024h-.09v.2h.64v-.347h.152v.1h-.012v-.062h-.076v.32h.57v-.1l-.106-.106v-.116l.131-.13v-.2h-.1v.019h-.025v-.109h-.09v-.052l1.75-.116.174.173h4.2v-.276l.035-.036.035.036v.886h-.114v.141h.381l2.131,1.326v.121h.3v.2h.333v.222h.276v.106h.163v.355l.927.511-.135.235h-.229v1.041h2.448v-.143h.031v-.127l.142-.1v-.6h-.032v-.053h.032v-.065h-.042l-.112-.112h.124v-.052h.066v-.162l.121-.122v-.124l-.133-.082.175-.175v-.045h-.024v-.088l-.1-.1.15-.191v-.062h.015v-.122h-.03l-.022-.051h.059v-.188l-.034-.033v-.246l-.152-.054v-.023l.191-.077v-.119l-.074-.207v-.08l.081-.078v-.113l-.052-.052v-.035l.123-.055v-.019h.1v.1h.1l-.074.068v.08h.036v.025h.067v-.029l.043-.044h.039l.027.026v.056h.058v-.037h.035v.051l-.06.021v.115h.04v.271h-.031v.265h.023v.034h.106v.04h-.122v.043h-.024v.284h-.035v.042h-.018v.1h.053v.02h.063l-.023.023h-.036v.05h-.035v.03h-.017v.1h.033l.128.221-.158.211v.078h.064v.133h.07v.05h-.052l-.071.073v.175l.113.064v.115h.063l.1.1-.065.064h-.077v.076h-.052v.025h.046v.067h.059l-.095.027v.065h-.018v.49l.052.051h.077v-.338h.046v-.129l.114-.112v-.545h-.021v-.026h.042v-.124l-.082-.083v-.036l.1-.1v-.1l.127-.059v-.2l-.113-.072.124-.149h.046v-.123h-.037v-.1h-.1v-.131l.156-.168V3256h-.043v-.046h.056v-.124h-.062v-.063h.063v-.06h-.056v-.035h-.039v-.067h.071v-.048h-.035l-.121-.1v-.044h.1v-.039l.079-.031v-.058l-.063-.074h.03v-.065l-.069-.068v-.145l.049-.025v-.064h.022v-.134h-.025v-.083h.055v.061h.063l.036-.1.135.114v.151h.013v.088h.035v.164l-.069.07v.048h-.035v.134h.041l.129.063v.038l-.15.074v.166h-.019v.095h-.034v.186l.056.014v.026h-.053v.183l.124.175v.052l-.1.059v.095l-.057.057v.049l.157.137v.056l-.135.1v.1l.116.116v.115l.13.061-.149.15v.057h.028v.058h-.03v.585l.1.1v.061h.027v.034h.075l.709-.4h.1v-.027h.017v-.071h-.06v-.022h.06v-.255h.077v-.134l.1-.088v-.545h-.04v-.061h.066v-.06h-.026v-.027h-.094v-.107h.138v-.2l.077-.068v-.216l-.1-.058v-.033l.171-.113v-.1h-.041v-.09h-.083v-.119l.091-.073v-.071l.039-.04v-.172l-.038-.037.057-.057v-.107h-.057v-.258l-.094-.083v-.055l.152-.077v-.058h-.035l-.049-.049v-.037h.052v-.077l-.063-.062v-.084l.032-.043v-.075h.024v-.255h.068v.078h.1v-.078h.054v.255h.028v.154h.048v.115h-.03l-.06.073v.185l.054.054h.1v.049h-.093l-.057.057v.265h-.052v.136h.052v.086h-.044v.24l.121.069v.121l-.1.067v.087h-.032v.056h.038l.1.153v.05l-.105.068v.171l.09.089v.131h.127v.091l-.129.1v.051h.052v.055h-.073v.576l.088.087v.061h.1v-.025l1.167-.6h.15v-.574s.177-.073,0-.112v-.049h.064v-.115h.053v-.076l.072-.074h.2v-.051h.064v-.169h.018v-.235h.072v-.06h-.06v-.1h.117v-.079h.12v-.131l-.073-.073h.036v-.053h.037v-.049h-.1v-.032h-.135v-.119l-.088-.1h.134v-.032h.145v-.044l.185-.185v-.28l.139-.139v-.17h.044v-.305h.26v.352h.028v.17l.112.113v.267h.06v.114h.071l.034.036v.108h.205l.121.074v.035l-.116.074v.094h-.155l-.052.052v.048h.05v.049h-.048l-.033.033v.122h.172v.149h-.031v.091h-.027v.153h.03v.121h.055v.09l.076.077h.124l.05-.111h.089l.117.118v.044l-.067.067h-.05v.052h.016v.106l.134.045v.048h-.121v.061h.021l.062.062v.679l3.984,1.971h1.109l.309.309h2.349v.149h.176l2.223,2.521v.59h.524l.9,1v.235l2.144,2.481.085-.084h.143v.084h1.367l.187.163v.295h.229l.211.211-.078.078v1.836l.05.052-.1.1v.743l.5.1.549-.349v-.223l-.162-.161v-.149h-.327l-.094-.095v-.2h-.155v-.148h-.042v-.061l.78-.078v-.2h.279v-.382l.1-.1v-.943l-.162-.241h.162v-.2h.325v-1.714h-.123v-.422h.123v-7.834h-.22v-.217h-.211l-.21-.722h.518v-.326h.059V3252.1l-.181-.208h-.123v-.187h-.2l-.147-.867h.47v-.255h-.044v-.275l.171-.171h.181v-.592l-.26-.26a.518.518,0,0,0-.08,0s0-.207,0-.207h-.03v-.162h.091l.28-.121a4.117,4.117,0,0,1,.828-2.517v-.178h-.067v-.174h.267v-.467l-.218-.156.048-.153h.24v-.828l-.11-.05v-.124h-.149v-.023h.05v-.185h.3s.178-.611.554-.611c0,0,0-.236.1-.236,0,0,.144-.031.144.235,0,0,.591.14.591.606h.345v.23h-.092v.087l-.1.1v.776h.2v.191l-.148.149v.421h.285v.239h-.125v.163s.83.562.861,2.464h.366v.527h-.125l-.145.144h-.1v.721a.335.335,0,0,1,.287.344v.086h-.04v.128h.05v.132h.416v.282h-.043v.184h.043v.372l-.407.408v3.266l.119.07v.173h.205v.051h.064v.662h-.038v.12l-.129.129v.173h-.075v.248h-.037v.245h-.052v.1h.123v.165h1.892v.2l1.28-.59v-.759h.182v-.181l.056-.055v-.072l.183-.131v-.71h-.058v-.1h.04V3255l-.045-.044h-.143v-.068h-.069v-.193h.224v-.1l.228-.228v-.3l.235-.234v-.115h-.063v-.094h.354v.077h-.077v.171l.234.235v.247l.309.31h.221v.179l-.125.125h-.138v.077h.052v.089l-.068.068v.725l.139.14v.075h.089v.237h.2v.672l1.421.646v-.168h3.911v.133l-.249.317.073.1-.064,0v.968h3.28s0-.646,0-.646h1.5v.128h-.084v.554h1.554v-.128h.244v-.113h.309v-.233h.084v-.257h.466v-.092l-.065-.066v-1l.014-.015v-.086h-.134v-.049h.414v.049h-.176v.088h.04v.032l-.035.036v.305l.039.04v.461l.522-.51.45,0v-.225h-.051v-.05h.143v-.093h-.046v-.054h.046v-.108h.188v.131h.359v-.139h.167v.2l.071.072h.063v.051h-.041v.251h3.079v.122l-.253.229h2.879l2.745-2.095v.863h.752V3273.8h-77.081Z" transform="translate(-3297.882 -3243.09)"/></g><g transform="translate(24.206 14.449)"><path class="b" d="M3444.5,3320.665a.1.1,0,1,1-.1-.095A.1.1,0,0,1,3444.5,3320.665Z" transform="translate(-3444.305 -3320.57)"/></g><g transform="translate(76.502 14.409)"><rect class="b" width="0.036" height="0.906"/></g><g transform="translate(76.653 14.409)"><rect class="b" width="0.035" height="0.906"/></g><g transform="translate(76.806 14.409)"><rect class="b" width="0.037" height="0.906"/></g><g transform="translate(76.957 14.409)"><rect class="b" width="0.035" height="0.906"/></g><g transform="translate(76.328 14.398)"><rect class="b" width="0.753" height="0.029"/></g><g transform="translate(67.451 15.757)"><rect class="b" width="0.076" height="0.079"/></g><g transform="translate(65.699 17.016)"><path class="b" d="M3695.509,3336.1h-.21v.157h.078v-.078h.039v.051h.093Z" transform="translate(-3695.299 -3336.099)"/></g><g transform="translate(58.069 16.998)"><rect class="b" width="7.407" height="0.025"/></g><g transform="translate(63.363 17.012)"><rect class="b" width="0.014" height="0.693"/></g><g transform="translate(63.286 17.012)"><rect class="b" width="0.013" height="0.693"/></g><g transform="translate(63.52 17.012)"><rect class="b" width="0.013" height="0.693"/></g><g transform="translate(63.442 17.012)"><rect class="b" width="0.012" height="0.693"/></g><g transform="translate(63.675 17.012)"><rect class="b" width="0.013" height="0.693"/></g><g transform="translate(63.597 17.012)"><rect class="b" width="0.013" height="0.693"/></g><g transform="translate(63.831 17.012)"><rect class="b" width="0.014" height="0.693"/></g><g transform="translate(63.753 17.012)"><rect class="b" width="0.013" height="0.693"/></g><g transform="translate(63.986 17.012)"><rect class="b" width="0.014" height="0.693"/></g><g transform="translate(63.908 17.012)"><rect class="b" width="0.013" height="0.693"/></g><g transform="translate(64.142 17.012)"><rect class="b" width="0.014" height="0.693"/></g><g transform="translate(64.065 17.012)"><rect class="b" width="0.012" height="0.693"/></g><g transform="translate(64.298 17.012)"><rect class="b" width="0.013" height="0.693"/></g><g transform="translate(64.22 17.012)"><rect class="b" width="0.013" height="0.693"/></g><g transform="translate(64.454 17.012)"><rect class="b" width="0.013" height="0.693"/></g><g transform="translate(64.376 17.012)"><rect class="b" width="0.013" height="0.693"/></g><g transform="translate(64.61 17.012)"><rect class="b" width="0.013" height="0.693"/></g><g transform="translate(64.531 17.012)"><rect class="b" width="0.013" height="0.693"/></g><g transform="translate(64.765 17.012)"><rect class="b" width="0.013" height="0.693"/></g><g transform="translate(64.687 17.012)"><rect class="b" width="0.013" height="0.693"/></g><g transform="translate(64.921 17.012)"><rect class="b" width="0.014" height="0.693"/></g><g transform="translate(64.843 17.012)"><rect class="b" width="0.013" height="0.693"/></g><g transform="translate(65.076 17.012)"><rect class="b" width="0.013" height="0.693"/></g><g transform="translate(64.998 17.012)"><rect class="b" width="0.014" height="0.693"/></g><g transform="translate(65.232 17.012)"><rect class="b" width="0.013" height="0.693"/></g><g transform="translate(65.155 17.012)"><rect class="b" width="0.013" height="0.693"/></g><g transform="translate(65.388 17.012)"><rect class="b" width="0.013" height="0.693"/></g><g transform="translate(65.309 17.012)"><rect class="b" width="0.014" height="0.693"/></g><g transform="translate(59.735 17.012)"><rect class="b" width="0.014" height="0.693"/></g><g transform="translate(59.658 17.012)"><rect class="b" width="0.013" height="0.693"/></g><g transform="translate(59.892 17.012)"><rect class="b" width="0.013" height="0.693"/></g><g transform="translate(59.813 17.012)"><rect class="b" width="0.013" height="0.693"/></g><g transform="translate(60.048 17.012)"><rect class="b" width="0.013" height="0.693"/></g><g transform="translate(59.969 17.012)"><rect class="b" width="0.013" height="0.693"/></g><g transform="translate(60.203 17.012)"><rect class="b" width="0.013" height="0.693"/></g><g transform="translate(60.125 17.012)"><rect class="b" width="0.013" height="0.693"/></g><g transform="translate(60.358 17.012)"><rect class="b" width="0.013" height="0.693"/></g><g transform="translate(60.28 17.012)"><rect class="b" width="0.013" height="0.693"/></g><g transform="translate(60.513 17.012)"><rect class="b" width="0.013" height="0.693"/></g><g transform="translate(60.436 17.012)"><rect class="b" width="0.013" height="0.693"/></g><g transform="translate(60.669 17.012)"><rect class="b" width="0.014" height="0.693"/></g><g transform="translate(60.592 17.012)"><rect class="b" width="0.013" height="0.693"/></g><g transform="translate(60.826 17.012)"><rect class="b" width="0.013" height="0.693"/></g><g transform="translate(60.748 17.012)"><rect class="b" width="0.012" height="0.693"/></g><g transform="translate(58.494 17.012)"><rect class="b" width="0.013" height="0.693"/></g><g transform="translate(58.416 17.012)"><rect class="b" width="0.013" height="0.693"/></g><g transform="translate(58.649 17.012)"><rect class="b" width="0.014" height="0.693"/></g><g transform="translate(58.572 17.012)"><rect class="b" width="0.013" height="0.693"/></g><g transform="translate(58.805 17.012)"><rect class="b" width="0.014" height="0.693"/></g><g transform="translate(58.728 17.012)"><rect class="b" width="0.013" height="0.693"/></g><g transform="translate(58.961 17.012)"><rect class="b" width="0.014" height="0.693"/></g><g transform="translate(58.883 17.012)"><rect class="b" width="0.013" height="0.693"/></g><g transform="translate(59.117 17.012)"><rect class="b" width="0.014" height="0.693"/></g><g transform="translate(59.04 17.012)"><rect class="b" width="0.013" height="0.693"/></g><g transform="translate(59.273 17.012)"><rect class="b" width="0.014" height="0.693"/></g><g transform="translate(59.195 17.012)"><rect class="b" width="0.013" height="0.693"/></g><g transform="translate(59.429 17.012)"><rect class="b" width="0.013" height="0.693"/></g><g transform="translate(59.351 17.012)"><rect class="b" width="0.013" height="0.693"/></g><g transform="translate(59.584 17.012)"><rect class="b" width="0.014" height="0.693"/></g><g transform="translate(59.506 17.012)"><rect class="b" width="0.013" height="0.693"/></g><g transform="translate(60.981 17.012)"><rect class="b" width="0.014" height="0.693"/></g><g transform="translate(60.904 17.012)"><rect class="b" width="0.012" height="0.693"/></g><g transform="translate(61.137 17.012)"><rect class="b" width="0.013" height="0.693"/></g><g transform="translate(61.059 17.012)"><rect class="b" width="0.013" height="0.693"/></g><g transform="translate(61.293 17.012)"><rect class="b" width="0.013" height="0.693"/></g><g transform="translate(61.215 17.012)"><rect class="b" width="0.013" height="0.693"/></g><g transform="translate(61.448 17.012)"><rect class="b" width="0.014" height="0.693"/></g><g transform="translate(61.371 17.012)"><rect class="b" width="0.013" height="0.693"/></g><g transform="translate(61.604 17.012)"><rect class="b" width="0.013" height="0.693"/></g><g transform="translate(61.526 17.012)"><rect class="b" width="0.013" height="0.693"/></g><g transform="translate(61.759 17.012)"><rect class="b" width="0.014" height="0.693"/></g><g transform="translate(61.682 17.012)"><rect class="b" width="0.012" height="0.693"/></g><g transform="translate(61.884 15.521)"><rect class="b" width="0.052" height="1.716"/></g><g transform="translate(61.354 15.55)"><rect class="b" width="0.556" height="0.021"/></g><g transform="translate(61.639 15.951)"><path class="b" d="M3671.185,3329.9a.223.223,0,1,1-.222-.249A.236.236,0,0,1,3671.185,3329.9Z" transform="translate(-3670.741 -3329.652)"/></g><g transform="translate(61.677 16.613)"><path class="b" d="M3671.375,3333.925a.21.21,0,1,1-.2-.263A.24.24,0,0,1,3671.375,3333.925Z" transform="translate(-3670.969 -3333.662)"/></g><g transform="translate(65.338 16.815)"><rect class="b" width="0.028" height="0.628"/></g><g transform="translate(55.414 15.776)"><rect class="b" width="0.117" height="0.452"/></g><g transform="translate(55.658 15.424)"><rect class="b" width="0.095" height="0.831"/></g><g transform="translate(56.019 14.635)"><rect class="b" width="0.062" height="1.62"/></g><g transform="translate(55.724 14.635)"><rect class="b" width="0.65" height="0.018"/></g><g transform="translate(56.05 14.848)"><rect class="b" width="0.352" height="0.018"/></g><g transform="translate(56.437 13.35)"><path class="b" d="M3639.538,3316.707a1.038,1.038,0,0,1-.03-.166l.151-.063v-.3l-.1-.078-.053-.415-.1-.127v-.392l-.036-.036v-.364l-.1-.151.03-.1.115.075.015.178.09.021v-.09s.143-.28.31-.347l.014-.088.018-.029-.044-.117.028-.123.111-.072.076.028.044.113-.01.108-.035.1.014.054.1.076s.2.118.217.263c0,0,.032.14.078.17s.025.1.018.151a.536.536,0,0,0,.067.18c0,.012.14-.67.14-.67l.024,0-.153.72.034.039-.043.116-.049-.069-.025-.04-.078.028.014.165.084.006-.01.1-.111.08.007.138.032.022-.023.112,0,.2-.091.283,0,.082.072.044.011.165Z" transform="translate(-3639.273 -3313.923)"/><g transform="translate(1.325 0.375)"><path class="b" d="M3647.518,3316.309a.115.115,0,1,1-.115-.115A.115.115,0,0,1,3647.518,3316.309Z" transform="translate(-3647.287 -3316.194)"/></g></g><g transform="translate(52.317 10.319)"><path class="b" d="M3614.574,3297.542h-.225v-1.955h.225Zm-.177-.048h.13v-1.858h-.13Z" transform="translate(-3614.349 -3295.588)"/></g><g transform="translate(51.907 10.685)"><path class="b" d="M3612.861,3298.033h-.992v-.232h.992Zm-.944-.048h.9v-.136h-.9Z" transform="translate(-3611.869 -3297.801)"/></g><g transform="translate(48 10.468)"><rect class="b" width="0.073" height="3.438"/></g><g transform="translate(45.307 11.049)"><path class="b" d="M3571.949,3302.276h1.305v-1.4s.056-.875-.653-.875-.653.743-.653.743Z" transform="translate(-3571.948 -3300)"/></g><g transform="translate(45.179 12.242)"><path class="b" d="M3572.785,3307.451h-.688l.268.361h-.1l.081.2h-.35v.125h-.032v-.125h-.351l.082-.2h-.1l.266-.361h-.687v-.234h1.613Z" transform="translate(-3571.172 -3307.218)"/></g><g transform="translate(45.098)"><g transform="translate(0.785 0.815)"><rect class="b" width="0.034" height="0.96"/></g><g transform="translate(0.645 1.239)"><path class="b" d="M3574.9,3240.82a.158.158,0,1,1-.159-.158A.159.159,0,0,1,3574.9,3240.82Z" transform="translate(-3574.583 -3240.662)"/></g><g transform="translate(0 0.83)"><path class="b" d="M3571.83,3238.444l-.156-.184-.187,0-.547-.073-.255.073h.412l-.01.075-.4-.042.4.124-.384.041.384.015v.124l-.329-.066.329.1h.4l.341-.16h.374Zm-.337-.157h.167l.1.12h-.273Zm-.007.3v-.136h.283Z" transform="translate(-3570.684 -3238.185)"/></g><g transform="translate(1.073 1.01)"><path class="b" d="M3577.333,3239.358a.08.08,0,0,1-.079.08.08.08,0,1,1,0-.16A.08.08,0,0,1,3577.333,3239.358Z" transform="translate(-3577.173 -3239.278)"/></g><g transform="translate(0.707 0.774)"><rect class="b" width="0.18" height="0.062"/></g><g transform="translate(0.775)"><rect class="b" width="0.044" height="0.815"/></g><g transform="translate(0.358 0.42)"><rect class="b" width="0.874" height="0.02"/></g><g transform="translate(1.151 0.38)"><rect class="b" width="0.051" height="0.12"/></g><g transform="translate(0.393 0.38)"><rect class="b" width="0.051" height="0.12"/></g><g transform="translate(0.724 0.037)"><rect class="b" width="0.149" height="0.044"/></g><g transform="translate(0.58 0.234)"><g transform="translate(0 0)"><g transform="translate(0)"><rect class="b" width="0.024" height="0.556" transform="matrix(0.708, -0.706, 0.706, 0.708, 0, 0.017)"/></g></g></g><g transform="translate(0.58 0.235)"><g transform="translate(0 0)"><rect class="b" width="0.556" height="0.024" transform="translate(0 0.393) rotate(-45)"/></g></g></g><g transform="translate(39.77 23.917)"><rect class="b" width="0.028" height="1.016"/></g><g transform="translate(38.466 22.833)"><rect class="b" width="0.044" height="0.386"/></g><g transform="translate(38.675 23.106)"><rect class="b" width="0.032" height="0.413"/></g><g transform="translate(32.773 17.104)"><path class="b" d="M3496.79,3337.017a.335.335,0,1,1-.331-.385A.362.362,0,0,1,3496.79,3337.017Z" transform="translate(-3496.128 -3336.632)"/></g><g transform="translate(33.022 17.767)"><rect class="b" width="0.061" height="0.421"/></g><g transform="translate(32.219 13.856)"><path class="b" d="M3493.027,3319.676s-.106.014-.12,0,0-.466,0-.466h.044v-2.229h-.051v2.082h-.094v.648h-.028v.755h.136v.1h-.059v.093h.031v.065h-.079v.146h.062v.11h-.092v.181h.321v-1.441Zm.007,1.4h-.066v-.2h.066Zm.006-.319h-.08v-.073h.08Zm-.068-.165v-.139h.057v.139Zm.068-.233h-.08v-.586h.08Z" transform="translate(-3492.778 -3316.981)"/></g><g transform="translate(27.4 12.449)"><g transform="translate(0 3.76)"><rect class="b" width="0.872" height="0.579"/></g><g transform="translate(0.039 3.627)"><rect class="b" width="0.791" height="0.293"/></g><g transform="translate(0.166 2.808)"><rect class="b" width="0.538" height="0.988"/></g><g transform="translate(0.175 2.511)"><rect class="b" width="0.521" height="0.265"/></g><g transform="translate(0.293 2.234)"><rect class="b" width="0.284" height="0.391"/></g><g transform="translate(0.002 2.719)"><path class="b" d="M3463.639,3324.918h.867l-.14.14h-.589Z" transform="translate(-3463.639 -3324.918)"/></g><g transform="translate(0.179 2.079)"><path class="b" d="M3464.709,3321.136l.16.12h.256l.1-.1-.111-.112h-.224Z" transform="translate(-3464.709 -3321.047)"/></g><g transform="translate(0.328 1.879)"><rect class="b" width="0.214" height="0.305"/></g><g transform="translate(0.217 1.565)"><path class="b" d="M3464.942,3318.155l.121.122h.176l.14-.138v-.062l-.136-.135h-.145l-.156.153Z" transform="translate(-3464.942 -3317.941)"/></g><g transform="translate(0.374 1.075)"><rect class="b" width="0.123" height="0.602"/></g><g transform="translate(0.328 0.566)"><rect class="b" width="0.214" height="0.542"/></g><g transform="translate(0.239)"><path class="b" d="M3465.115,3308.927v.143h.258v-.1h.1v-.217h-.068v-.281h-.07l-.127.126v-.126h-.062v.261l-.065.065v.134Z" transform="translate(-3465.075 -3308.471)"/></g><g transform="translate(0.176 0.777)"><rect class="b" width="0.52" height="0.044"/></g><g transform="translate(0.272 1.337)"><rect class="b" width="0.328" height="0.039"/></g><g transform="translate(0.107 2.921)"><rect class="b" width="0.656" height="0.048"/></g></g><g transform="translate(28.918 13.249)"><g transform="translate(0 3.76)"><rect class="b" width="0.871" height="0.579"/></g><g transform="translate(0.04 3.628)"><rect class="b" width="0.79" height="0.293"/></g><g transform="translate(0.166 2.809)"><rect class="b" width="0.538" height="0.987"/></g><g transform="translate(0.175 2.511)"><rect class="b" width="0.522" height="0.265"/></g><g transform="translate(0.294 2.235)"><rect class="b" width="0.283" height="0.391"/></g><g transform="translate(0.002 2.719)"><path class="b" d="M3472.82,3329.757h.867l-.14.14h-.589Z" transform="translate(-3472.82 -3329.757)"/></g><g transform="translate(0.178 2.079)"><path class="b" d="M3473.888,3325.975l.159.121h.257l.1-.1-.111-.111h-.225Z" transform="translate(-3473.888 -3325.886)"/></g><g transform="translate(0.329 1.879)"><rect class="b" width="0.214" height="0.305"/></g><g transform="translate(0.217 1.566)"><path class="b" d="M3474.121,3322.994l.121.122h.176l.14-.139v-.061l-.135-.136h-.146l-.156.153Z" transform="translate(-3474.121 -3322.78)"/></g><g transform="translate(0.374 1.075)"><rect class="b" width="0.122" height="0.603"/></g><g transform="translate(0.329 0.567)"><rect class="b" width="0.214" height="0.542"/></g><g transform="translate(0.239)"><path class="b" d="M3474.292,3313.763v.142h.259v-.1h.095v-.217h-.067v-.282h-.071l-.127.127v-.127h-.062v.262l-.065.065v.134Z" transform="translate(-3474.254 -3313.307)"/></g><g transform="translate(0.175 0.777)"><rect class="b" width="0.52" height="0.044"/></g><g transform="translate(0.272 1.338)"><rect class="b" width="0.327" height="0.039"/></g><g transform="translate(0.107 2.921)"><rect class="b" width="0.657" height="0.049"/></g></g><g transform="translate(30.427 13.582)"><g transform="translate(0 3.76)"><rect class="b" width="0.872" height="0.578"/></g><g transform="translate(0.039 3.627)"><rect class="b" width="0.793" height="0.293"/></g><g transform="translate(0.167 2.808)"><rect class="b" width="0.538" height="0.988"/></g><g transform="translate(0.175 2.511)"><rect class="b" width="0.522" height="0.265"/></g><g transform="translate(0.294 2.235)"><rect class="b" width="0.283" height="0.391"/></g><g transform="translate(0.002 2.719)"><path class="b" d="M3481.949,3331.773h.867l-.14.14h-.588Z" transform="translate(-3481.949 -3331.773)"/></g><g transform="translate(0.179 2.079)"><path class="b" d="M3483.017,3327.991l.16.12h.255l.1-.1-.111-.111h-.224Z" transform="translate(-3483.017 -3327.902)"/></g><g transform="translate(0.329 1.879)"><rect class="b" width="0.214" height="0.304"/></g><g transform="translate(0.217 1.565)"><path class="b" d="M3483.25,3325.008l.122.122h.176l.139-.14v-.061l-.135-.136h-.146l-.156.153Z" transform="translate(-3483.25 -3324.793)"/></g><g transform="translate(0.375 1.075)"><rect class="b" width="0.123" height="0.602"/></g><g transform="translate(0.329 0.567)"><rect class="b" width="0.214" height="0.542"/></g><g transform="translate(0.24)"><path class="b" d="M3483.427,3315.78v.142h.259v-.1h.094v-.217h-.068v-.281h-.07l-.126.127v-.127h-.062v.261l-.065.065v.132Z" transform="translate(-3483.388 -3315.323)"/></g><g transform="translate(0.176 0.777)"><rect class="b" width="0.52" height="0.045"/></g><g transform="translate(0.272 1.337)"><rect class="b" width="0.327" height="0.039"/></g><g transform="translate(0.108 2.921)"><rect class="b" width="0.656" height="0.048"/></g></g><g transform="translate(28.763 15.614)"><rect class="b" width="0.019" height="1.61"/></g><g transform="translate(28.46 16.498)"><rect class="b" width="0.321" height="0.005"/></g><g transform="translate(28.745 16.787)"><rect class="b" width="0.09" height="0.089"/></g><g transform="translate(28.703 15.968)"><rect class="b" width="0.078" height="0.016"/></g><g transform="translate(28.781 15.919)"><rect class="b" width="0.039" height="0.02"/></g><g transform="translate(28.707 15.736)"><rect class="b" width="0.036" height="0.165"/></g><g transform="translate(28.724 15.874)"><rect class="b" width="0.044" height="0.006"/></g><g transform="translate(28.75 15.632)"><rect class="b" width="0.102" height="0.015"/></g><g transform="translate(25.266 12.207)"><rect class="b" width="0.072" height="0.17"/></g><g transform="translate(25.379 12.207)"><rect class="b" width="0.072" height="0.17"/></g><g transform="translate(24.567 10.127)"><g transform="translate(0.695)"><path class="b" d="M3450.927,3296.494h-.233v-2.071h.233Zm-.185-.048h.136v-1.975h-.136Z" transform="translate(-3450.694 -3294.423)"/></g><g transform="translate(0 0.734)"><path class="b" d="M3448.112,3299.1h-1.622v-.233h1.622Zm-1.574-.048h1.525v-.137h-1.525Z" transform="translate(-3446.49 -3298.865)"/></g></g><g transform="translate(10.392 11.793)"><rect class="b" width="0.065" height="0.867"/></g><g transform="translate(11.452 11.74)"><rect class="b" width="0.112" height="0.976"/></g><g transform="translate(11.38 11.725)"><rect class="b" width="0.251" height="0.035"/></g><g transform="translate(10.599 11.72)"><rect class="b" width="0.113" height="0.975"/></g><g transform="translate(10.527 11.704)"><rect class="b" width="0.252" height="0.034"/></g><g transform="translate(9.675 11.72)"><rect class="b" width="0.113" height="0.975"/></g><g transform="translate(9.603 11.704)"><rect class="b" width="0.252" height="0.034"/></g><g transform="translate(7.889 12.253)"><rect class="b" width="0.16" height="0.274"/></g><g transform="translate(7.163 11.704)"><rect class="b" width="0.021" height="1.077"/></g><g transform="translate(6.928 12.1)"><rect class="b" width="0.246" height="0.015"/></g><g transform="translate(6.986 11.738)"><rect class="b" width="0.237" height="0.018"/></g><g transform="translate(8.563 10.594)"><path class="b" d="M3350.024,3299.281v-2.03h-.032a.529.529,0,0,1-.069.24.886.886,0,0,0-.139.371,1.651,1.651,0,0,1-.093.428c-.031.039.027.187.051.234s.077.16.077.16a.81.81,0,0,1,.036-.345.573.573,0,0,0,.089-.3c-.005-.075-.009-.263.037-.3v1.541l.044.012Z" transform="translate(-3349.681 -3297.251)"/></g><g transform="translate(4.682 12.887)"><rect class="b" width="2.185" height="0.012"/></g><g transform="translate(4.699 13.088)"><rect class="b" width="2.185" height="0.012"/></g><g transform="translate(4.699 13.222)"><rect class="b" width="2.185" height="0.012"/></g></g><g transform="translate(244.027 41.037)"><g transform="translate(0 2.427)"><path class="b" d="M2194.9,3133.342l2.61-1.229v-.921l-.525-.422.32-.486.4-.372v-4.863l-.32-.755.87-.346v-.793l2.867-3.494v-1.4l-.1-.346,1.4-.973-.166-.422.576-.321-.154-.486v-.422l.154-.282-.128-.09.128-.409.128-.384h.115v.32l.192.256-.1.769-.026.857.128.192-.115.6,1.177,1.178-.193.294v1.676l2.112,3.635v9.1l6.847-2.086v-.818h.717v-2.241l-.282-.384h.282v-2h-.064v-1.459h.064V3118.8l-.563-1.868h.563v-.922h-.154v-.2h.358v-3.545l-.172-.173v-.378h-.161v-.2h.333v-4.747h-.089v-.4l-.09-.09v-.089h.235v-2.073h-.137v-.683h.5v-4.42h-.206l-.119-1.6.521-.435v-4.659l-.227-.226v-.67h-.193v-.776l.837-.64v-1.288l.229-2.2.214,1.826,1.459-6.826,1.681,7.33.172-2.564.238,3.613.665.426v1.75l-.443.479v4.282l.665.393v1.476l-.452.436v4.173h.4v.631h-.153v2.013h.325v.581h-.214v4.777l.23.231v.6l-.171.171v.4l.128.137v.145l-.094.094v2.6h.137v.349h-.119v.649h.452l.281,2.5-.666.742v12.543l3.4.8v.512h1.638v5.238H2194.9Z" transform="translate(-2194.901 -3081.514)"/></g><g transform="translate(3.387 42.248)"><path class="b" d="M2215.534,3324.081l-.124-.234-.021-.385.111-.086-.038-.336-.034-.112.106-.086v-.084l.06-.035s-.039-.158-.047-.171,0-.154.047-.163a.244.244,0,0,1,.119.039l.08.239v1.386Z" transform="translate(-2215.389 -3322.39)"/></g><g transform="translate(4.321 41.341)"><path class="b" d="M2221.344,3318.278c0-.014-.058-.67-.058-.67l.058-.175-.208-.115-.06-.324-.038-.068.128-.022.025.354.239.077.163-.081v-.312l.285.418v.589Z" transform="translate(-2221.037 -3316.904)"/></g><g transform="translate(10.242 42.041)"><path class="b" d="M2256.857,3322.274l.077-.584-.077-.082.1-.136.1-.2.03-.141.153.052-.038.277.124.26v.2l-.1.12.068.844Z" transform="translate(-2256.857 -3321.135)"/></g><g transform="translate(10.763 42.915)"><path class="b" d="M2260.007,3327.507v-.324l.184-.085-.021-.191h-.071l.092-.094.03-.3.137-.086.072.09-.038.268.085.043.064.363-.068.3.013.759-.478-.717Z" transform="translate(-2260.007 -3326.424)"/></g><g transform="translate(20.759)"><path class="b" d="M2321.661,3068.724l-.229-.371.229-.422-1.191-.5v-.167l.09.16,1.146.443.326-.271-.268-.2.756-.563-.379,1.038-.14.1.448.448-.55-.345-.051.39.518.422h-.415v.2h-.365Z" transform="translate(-2320.471 -3066.83)"/></g><g transform="translate(21.482 2.067)"><path class="b" d="M2325.948,3079.885a.551.551,0,1,1-.55-.551A.55.55,0,0,1,2325.948,3079.885Z" transform="translate(-2324.847 -3079.334)"/></g><g transform="translate(20.127 8.201)"><path class="b" d="M2317.1,3116.662a.222.222,0,1,1-.222-.222A.222.222,0,0,1,2317.1,3116.662Z" transform="translate(-2316.652 -3116.44)"/></g><g transform="translate(23.677 8.03)"><path class="b" d="M2338.569,3115.627a.222.222,0,1,1-.222-.222A.222.222,0,0,1,2338.569,3115.627Z" transform="translate(-2338.124 -3115.405)"/></g></g><g transform="translate(555.671 60.881)"><g transform="translate(105.523 13.814)"><path class="b" d="M4718.366,3285.854a113.657,113.657,0,0,1,4.955-14.281v-.219h-.418v-.23a.763.763,0,0,1,.576-.313l.11-.382.042.1.1-.073.087.313s.6-.125.676.246v.24l-.686.151s1.207,4.412,1.616,6.169,1.943,8.938,1.943,8.938l-1.819-.408s-1.708-8.939-2.023-13.5c0,0-2.492,10.945-3.575,13.11Z" transform="translate(-4718.366 -3270.428)"/></g><g transform="translate(110.869 14.527)"><g transform="translate(0.422 2.149)"><path class="b" d="M4760.947,3301.467l-7.685-13.69.065-.037,7.685,13.691Z" transform="translate(-4753.263 -3287.74)"/></g><g transform="translate(0.338 1.719)"><rect class="b" width="0.075" height="16.282" transform="translate(0 0.037) rotate(-29.865)"/></g><g transform="translate(0.254 1.29)"><path class="b" d="M4760.778,3297.128l-8.53-14.549.064-.038,8.53,14.55Z" transform="translate(-4752.248 -3282.541)"/></g><g transform="translate(0.169 0.859)"><path class="b" d="M4760.686,3294.955l-8.955-14.979.064-.039,8.955,14.979Z" transform="translate(-4751.731 -3279.937)"/></g><g transform="translate(0.085 0.43)"><rect class="b" width="0.075" height="18.038" transform="matrix(0.854, -0.52, 0.52, 0.854, 0, 0.039)"/></g><path class="b" d="M4760.51,3290.617l-9.8-15.838.064-.039,9.8,15.839Z" transform="translate(-4750.708 -3274.74)"/></g><g transform="translate(88.752 14.479)"><g transform="translate(1.065 0.037)"><path class="b" d="M4623.412,3289.8l-.044-.06,20.544-15.071.044.061Z" transform="translate(-4623.368 -3274.673)"/></g><g transform="translate(0.711 0.025)"><path class="b" d="M4621.265,3289.745l-.044-.061,20.791-15.083.043.061Z" transform="translate(-4621.221 -3274.601)"/></g><g transform="translate(0.355 0.012)"><path class="b" d="M4619.113,3289.682l-.044-.061,21.039-15.095.043.061Z" transform="translate(-4619.069 -3274.526)"/></g><path class="b" d="M4616.966,3289.619l-.043-.061,21.286-15.107.043.061Z" transform="translate(-4616.923 -3274.452)"/></g><g transform="translate(46.348 0.198)"><path class="b" d="M4401.126,3217.514l-40.711-29.388.044-.061,40.711,29.388Z" transform="translate(-4360.416 -3188.065)"/><g transform="translate(0 0.188)"><rect class="b" width="0.075" height="49.676" transform="matrix(0.588, -0.809, 0.809, 0.588, 0, 0.061)"/></g><g transform="translate(0 0.376)"><path class="b" d="M4400.081,3219.414l-39.665-29.012.045-.06,39.664,29.012Z" transform="translate(-4360.416 -3190.342)"/></g><g transform="translate(0 0.565)"><path class="b" d="M4399.558,3220.365l-39.143-28.823.045-.061,39.142,28.824Z" transform="translate(-4360.416 -3191.481)"/></g></g><g transform="translate(43.736)"><path class="b" d="M4347.845,3189.29c0,.014.011.027.016.04,8.14,21.294,9.047,27.152,9.047,27.152h-2.216c-1.464-4.13-6.847-22.007-6.847-22.007-.143,4.81-.784,22.446-.784,22.446l-2.446.219c.46-9.284,2-26.21,2-26.21s-.471-1.62-.878-2.613.271-1.316.271-1.316a1.818,1.818,0,0,1,1.84.334A7.067,7.067,0,0,1,4347.845,3189.29Z" transform="translate(-4344.615 -3186.865)"/></g><g transform="translate(13.488 2.754)"><path class="b" d="M4161.652,3229.237l-.009-.01,32.335-25.705.008.01Z" transform="translate(-4161.643 -3203.522)"/></g><g transform="translate(0 1.436)"><path class="b" d="M4080.061,3224.808l-.007-.011,45.133-29.244.009.01Z" transform="translate(-4080.054 -3195.552)"/></g><g transform="translate(5.872 1.77)"><path class="b" d="M4115.578,3223.919l-.006-.011,39.262-26.333.008.011Z" transform="translate(-4115.572 -3197.574)"/></g><g transform="translate(5.024 1.906)"><path class="b" d="M4110.456,3226.389l-.008-.011,40.485-27.98.006.011Z" transform="translate(-4110.447 -3198.398)"/></g><g transform="translate(6.717 2.252)"><path class="b" d="M4120.7,3228.514l-.007-.01,38.729-28.019.008.011Z" transform="translate(-4120.688 -3200.486)"/></g><g transform="translate(8.41 2.586)"><path class="b" d="M4130.936,3230.613l-.007-.01,37.162-28.1.007.011Z" transform="translate(-4130.929 -3202.507)"/></g><g transform="translate(35.853 28.156)"><path class="b" d="M4299.513,3368.4v-1.254s-2.583-3.964-2.583-4.59,1.255-.92,1.924-.962c0,0-.6-.418.125-.449l.355-.293s7.214-2.885,14.009-2.425a3.123,3.123,0,0,1,1.882.063c.768.376,0-.062,0-.062a9.771,9.771,0,0,1,3.012-.2,14.4,14.4,0,0,1,3.794-.07,15,15,0,0,1,3.983-.119,10.366,10.366,0,0,1,3.7-.115,10.912,10.912,0,0,1,4.36-.23,11.2,11.2,0,0,1,4.155-.13,9.02,9.02,0,0,1,3.544-.074,4.537,4.537,0,0,1,2.43.016h3.733a2.822,2.822,0,0,1,2.007-.079,5.26,5.26,0,0,1,2.87-.07,16.727,16.727,0,0,1,2.526.008s5.879-.329,8.7.376c0,0,6.791.236,7.605.519a68.766,68.766,0,0,1,7.2.486s10.54.208,12.881,2.425c0,0,.408.356,0,.376,0,0,1.747.147,1.715.837s-2.52,4.4-2.52,4.4v1.62Z" transform="translate(-4296.929 -3357.185)"/></g></g><g transform="translate(0 47.633)"><path class="b" d="M778.541,3142.642v17.431H718.773v-12.345h2.275v-.75h.581v-20.806l-.7-.546-.46-.363,1.163-.556v-.7l.253-.254v-6.427h-.2v-.487h.164v-.526h.1v-.427h-.463l-.237-.237-.3-1.416h.872v-.272l.835-.345v-.327h.108v-2.015l-.436-.436-.472-1.4,3.586-2.706,2.533.417,4.057,3.232v1.725l-.635.354v2.278l.371.273h.481v.245h.763v1.534h-.853v.491h.19v1.571h-.117v5.973l.222.223v.667l1.121.808h-.236v.281l-.872.427v20.163h2.288a8.019,8.019,0,0,0,1.455-2.074,4.537,4.537,0,0,1,2.953-2.542v-2.953l-.81-.811,5.839-5.086v-.591h-.151v-.024h.151v-.291h.055v.291h.17v.024h-.17v.544l.012-.011,6.876,2.807s6.342,3.837,6.366,3.789-.23-.4-.23-.4l.509-.3a5.422,5.422,0,0,1,.823-2.528v-.844l.835-1.67.418-.209v-.917s1.449-.718,1.462-.709,0-.162,0-.162h-.15l.936-1.29v-1.906l.05,1.942.531.8,1.108-.61v-.365l.407-.155v-.5s-.412-.6.414-1.047a.449.449,0,0,1,.294-.468.5.5,0,0,1,.346-.541.361.361,0,0,1,.222-.345v-.771l.228-.3v-1.153l.2-.168v-.913l.25-.421v-.359h.118v-.294c-.1-.019-.16-.053-.16-.095s.1-.095.242-.105v-.2a.2.2,0,0,1,0-.39v-.274h-.181v-.157h-.133v-.176h.205v.145h.109v-1.125h-.242v-.066h.242v-.128h.059v.128h.2v.066h-.2v.714h.123v-.121h.169v.175h-.139v.1h-.153v.254h.081v-.115h.254v.181h-.212v.122h-.123v.266a.2.2,0,0,1,0,.405v.188h.016c.176,0,.318.05.318.11,0,.041-.067.078-.166.1v.326h.109v.3h.168l.109.281v1l.238.238v.878l.273.274v.856s.173.115.173.246c0,0,.346.2.346.495a.386.386,0,0,1,.313.408s1.048.4.441,1.03v.313l.4.386v.4h2.834v-.164h.072v.375l1,1.585,1.5.4.69,1.079v6.948l-.278.277v.666l.956.727-.3.242h2.372v-.3l-.157-.206h.605v-.28Z" transform="translate(-718.773 -3106.732)"/><g transform="translate(42.599 26.253)"><path class="b" d="M976.456,3266.827v-1.211l.151-.078v1.216Z" transform="translate(-976.456 -3265.538)"/></g><g transform="translate(42.902 26.084)"><path class="b" d="M978.289,3265.856v-1.278l.393-.066v1.277Z" transform="translate(-978.289 -3264.513)"/></g><g transform="translate(43.429 26.084)"><rect class="b" width="0.441" height="1.258"/></g><g transform="translate(44.004 26.181)"><path class="b" d="M984.953,3266.287V3265.1l.1.15v1.126Z" transform="translate(-984.953 -3265.101)"/></g><g transform="translate(39.958 27.674)"><path class="b" d="M962.961,3274.142a4.268,4.268,0,0,0-.764.507,5.807,5.807,0,0,0-.662.632,7.693,7.693,0,0,0-.561.723c-.178.25-.334.512-.489.778l-.006,0a5.033,5.033,0,0,1,.435-.815,5.348,5.348,0,0,1,.578-.721,5.835,5.835,0,0,1,.684-.622,4.223,4.223,0,0,1,.783-.486Z" transform="translate(-960.478 -3274.135)"/></g><g transform="translate(44.198 27.539)"><path class="b" d="M986.133,3273.314a7.231,7.231,0,0,1,1.31.856,7.4,7.4,0,0,1,1.105,1.112,5.871,5.871,0,0,1,.819,1.34,5.237,5.237,0,0,1,.4,1.514h-.007a6.349,6.349,0,0,0-.458-1.487,6.622,6.622,0,0,0-.8-1.333,7.4,7.4,0,0,0-1.083-1.12,7.246,7.246,0,0,0-1.29-.878Z" transform="translate(-986.129 -3273.314)"/></g><g transform="translate(4.671 10.369)"><path class="b" d="M748.471,3175.5v-.5l.182-.243V3170.3s-.048-.9-.678-.835-.944,1.453-.944,2.336v4.322Z" transform="translate(-747.03 -3169.457)"/></g><g transform="translate(9.66 10.665)"><path class="b" d="M777.2,3177.453v-5.2s.1-1.367,1.016-.909.956,2.082.956,2.652-.084,4.491-.084,4.491Z" transform="translate(-777.204 -3171.245)"/></g><g transform="translate(9.979 22.086)"><path class="b" d="M780.372,3243.836l-.025-.011-1.21-.489v-.012c0-.014.043-1.48.06-2.329.011-.548.2-.663.36-.663a.343.343,0,0,1,.151.036,1.265,1.265,0,0,1,.663,1.227Zm-1.2-.523,1.162.468v-2.188a1.231,1.231,0,0,0-.642-1.193.314.314,0,0,0-.136-.032c-.142,0-.312.109-.323.627C779.217,3241.8,779.179,3243.167,779.174,3243.313Z" transform="translate(-779.137 -3240.332)"/></g><g transform="translate(4.811 21.752)"><path class="b" d="M747.874,3241.98v-2.447c0-.047.067-1.136.566-1.216a.305.305,0,0,1,.278.089,1.41,1.41,0,0,1,.221.818v2.342l-.011,0Zm.625-3.632a.377.377,0,0,0-.052,0c-.471.075-.535,1.17-.536,1.181v2.394l.993-.386v-2.317a1.418,1.418,0,0,0-.211-.792A.267.267,0,0,0,748.5,3238.348Z" transform="translate(-747.874 -3238.312)"/></g><g transform="translate(4.903 3.696)"><path class="b" d="M748.795,3130.572h0a.354.354,0,0,1-.222-.07c-.224-.174-.174-.616.112-.987a1,1,0,0,1,.7-.428.348.348,0,0,1,.221.071c.225.173.175.616-.111.987A.994.994,0,0,1,748.795,3130.572Zm.594-1.448a.959.959,0,0,0-.676.414c-.273.355-.326.774-.118.936a.318.318,0,0,0,.2.063h0a.959.959,0,0,0,.676-.414c.274-.355.327-.774.118-.936A.322.322,0,0,0,749.389,3129.124Z" transform="translate(-748.433 -3129.088)"/></g><g transform="translate(9.942 4.145)"><path class="b" d="M780.026,3133.49a1.173,1.173,0,0,1-.805-.532,1.517,1.517,0,0,1-.294-.639.447.447,0,0,1,.12-.454.316.316,0,0,1,.195-.061,1.178,1.178,0,0,1,.806.534c.323.431.4.921.173,1.093A.316.316,0,0,1,780.026,3133.49Zm-.784-1.649a.278.278,0,0,0-.173.053.416.416,0,0,0-.107.419,1.472,1.472,0,0,0,.287.623,1.154,1.154,0,0,0,.777.518.283.283,0,0,0,.173-.053c.211-.158.13-.626-.18-1.042A1.162,1.162,0,0,0,779.242,3131.841Z" transform="translate(-778.915 -3131.805)"/></g></g><g transform="translate(503.358 73.925)"><path class="b" d="M3763.615,3274.355l4.245,1.264v-8.075h.386v-1l.527-.14.509.052v.94l.553-.053v-1.159h1.4v1.124h1.291v-1l1.387.149v1.194h.588v-.9h.8l.114.211v7.426l15.475-.948v-6.952l1.339-.6,1.553-.092s4.517-.25,5.61.843v15.353l.467.1v-.928l-.132-.118.132-.032v-.619h.685v.539h.309v-.448h.4v.25h.348v-.375h.765v.474h.4v-.362h.606v.566h.164v.066h-.244v1.283h.118v.336l.672.264h.52v-.277h.125v.218h.282v-.23h.126v.46l.25-.185.224.264h.158l.086-.086h.052v.455l1.943.605-.172.158v1.508l.862-.737-.276.657,3.187-1,.54-1.62v-2.133l.283-.283v-.546h1.522v-.132h2.015v-.2l11.994-.132v-.159h.778v.567l12.693-.475v.449h.683l.461.447v.553l.4.4v.31h1.074l1.408,1v.727h.185v.646h1.632v-.422h.118v.317h.132v.131h2.33v-.75h.133v-.158h.068v9.4h-86.293Z" transform="translate(-3763.613 -3265.771)"/></g><g transform="translate(274.18 0)"><path class="b" d="M2377.3,2907.668h10.51l.64-.64h4.7v-4.412l-.573-.561h.73v-1.572h.146v-5.12l.4-2.246.382,1.572.27-.562v-.853h-.213v-.685s1.571-1.337,1.571-4.862c0,0-.135,3.526,1.281,4.941v1.673l.325.326.2-1.618.438,2.381v5.221h.1v1.426h.472l-.635.635v4.957h3.194V2904.7h1.684v-.55h1.246v1.471l1.061,1.061,2.476-1.667,2.234,2.234h1.438v-2.489h2.485v-.448h5.045v-2.276l.584-.464v-2.859h.389v-3.024h-.149v-.4h-.239v-.4h-.345l1.767-1.317h.554v-3.084l-.087.086v-.812h-.647v-.255l1.49-1.062v-3l.722-.722a26.466,26.466,0,0,1,7.579-15.386v-1.98h-.386v-1.965l.386.584.6-.764v-2.437h-.392v-.573h.392v-2.414h-.348l.55-.236v-.348h-.729l1.673-1.651v-1.2l.854-1.335v-1.1h-.293l-.168-.505h.46v-3.268l-.3-.595v-.584h1.01v-.752l-.213-.37v-2.223l-.113-.113v-.539l.106-.106v-.174h.219v-2.01l.185-.185v-1.634h-.353l.09-.089h.416v-1.808l.129-.13v-1h-.668l.668-.157v-1.673l.227-.227v-1.626h.16v-3.615h-.5v-.315h.617v-1.886h-.2v-.382h.2v-2.358h-.146v-.5l.146.314h.213v-1.73h-.3v-.55l.3-.8v-1.347h.237l.145-2.37.292,4.054h.123l.169,1.135h-.169v1.324l.089.314v.36h.158v.527h-.168v1.561l.078.078v.561h-.157v1.527h.483v.372h-.516v3.659l.2.2v2.307l.25.251v1.04l.071.135v2.7l.247.248v1.549l.124.1v2.549h.146v.64l.084.083v3.127h.489v.936l-.3.3v3.533h.209v2.77h.4l1.947,2.784h-.39v.435h-.089v2.709h.224v.3h-.269v3.323l.329-.389.434.614h.18v.689h-.554v.808l-.374.374v.524h.18v.614a38.2,38.2,0,0,1,8.638,19.537l.816.853-.627.764v3.189h.627l1.349,1.325-.674.853V2899l.236.235v1.471h.1v.719l1.055.9.786-.674,2.2,1.348v.381h-.673v3.414h2.38l2.844-3.75h5.27l1.8,1.707v-1.827h3.653v1.737h.928v-1.138h1.259v.449h-.719v.389h3.174v-3.323l4.1-1.348,2.485.928v-1.706h7.365v-.419l2.4-.718v2.814l2.906-.928h13.293v-1.527l2.725-.719v3.473l1.318-.629h7.156v-2.1l2.425-.719h.63v2.725h7.425V2911.4h9.492v8.174H2377.3Z" transform="translate(-2377.301 -2818.595)"/></g></g></svg>