<svg xmlns="http://www.w3.org/2000/svg" width="249.403" height="75.176" viewBox="0 0 249.403 75.176"><defs><style>.a{fill:#b3b3b3;}.b{fill:#d9000d;}.c{fill:#fff;}.d{fill:#0064b3;}</style></defs><g transform="translate(-233.675 -142.63)"><rect class="a" width="76.473" height="75.176" transform="translate(233.675 142.63)"/><rect class="b" width="24.794" height="24.793" transform="translate(237.702 146.654)"/><rect class="b" width="24.793" height="24.793" transform="translate(280.847 146.654)"/><rect class="b" width="24.794" height="24.788" transform="translate(237.702 189.31)"/><rect class="b" width="24.793" height="24.788" transform="translate(280.847 189.31)"/><path class="c" d="M345.46,178.577H338.6l-8.678-14.935c-.622.03-1.126.047-1.515.047-.154,0-.321,0-.5-.012s-.379-.024-.568-.035v9.322c0,1.995.176,3.233.537,3.712a2.386,2.386,0,0,0,2.128,1.024h.976v.876h-10.93V177.7h.959a2.4,2.4,0,0,0,2.305-1.306,9.254,9.254,0,0,0,.379-3.43V152.273q0-2.985-.517-3.71a2.483,2.483,0,0,0-2.168-1.024h-.959v-.874h9.3a17.668,17.668,0,0,1,5.964.743,7.013,7.013,0,0,1,3.277,2.724,8.236,8.236,0,0,1,1.35,4.733,8.562,8.562,0,0,1-1.541,5.1,8.331,8.331,0,0,1-4.74,3.057l5.3,9.168a15.127,15.127,0,0,0,3.1,4.195,6.771,6.771,0,0,0,3.4,1.314Zm-18.117-16.394c.228,0,.434,0,.61.012s.32.011.431.011a6.585,6.585,0,0,0,7.263-7.005,7.616,7.616,0,0,0-1.468-4.85,4.744,4.744,0,0,0-3.915-1.869,11.676,11.676,0,0,0-2.92.51Z" transform="translate(-4.606 -0.214)"/><path class="c" d="M354.654,148.486v12.532h5.4a3.876,3.876,0,0,0,2.906-.813,6.041,6.041,0,0,0,1.1-3.779h.73v11.081h-.73a15.91,15.91,0,0,0-.538-2.979,2.66,2.66,0,0,0-1.1-1.291,4.707,4.707,0,0,0-2.367-.473h-5.4v10.442a11.7,11.7,0,0,0,.152,2.556,1.42,1.42,0,0,0,.528.722,2.539,2.539,0,0,0,1.4.269h4.3a9.606,9.606,0,0,0,3.137-.371,4.6,4.6,0,0,0,1.87-1.465,18.466,18.466,0,0,0,2.388-4.355h.8l-2.208,8.013H347.366V177.7h.9a3.013,3.013,0,0,0,1.718-.537,1.871,1.871,0,0,0,.826-1.117,14.391,14.391,0,0,0,.207-3.076v-20.7q0-3.067-.492-3.782a2.55,2.55,0,0,0-2.256-.952h-.9v-.874h19.607l.284,6.993h-.8a12.8,12.8,0,0,0-.871-3.408,3.235,3.235,0,0,0-1.4-1.42,6.9,6.9,0,0,0-2.625-.346Z" transform="translate(-6.062 -0.215)"/><path class="c" d="M395.157,145.9l.587,10.058h-.731a14.55,14.55,0,0,0-2.572-5.641,7.148,7.148,0,0,0-5.795-2.745q-4.861,0-7.384,4.808a20.718,20.718,0,0,0-2.107,9.662,23.489,23.489,0,0,0,1.411,8.308,12.061,12.061,0,0,0,3.692,5.5,7.687,7.687,0,0,0,4.709,1.747,8.533,8.533,0,0,0,2.726-.443,9.716,9.716,0,0,0,2.54-1.3v-9.114a10.916,10.916,0,0,0-.292-3.192,2.323,2.323,0,0,0-.9-1.149,4.228,4.228,0,0,0-2.154-.395v-.874h9.905V162h-.473a2.042,2.042,0,0,0-2.05,1.247,10.164,10.164,0,0,0-.387,3.489v9.722a16.909,16.909,0,0,1-4.26,2.131,15.219,15.219,0,0,1-4.681.679,12.557,12.557,0,0,1-11.223-5.929,18.543,18.543,0,0,1-2.863-10.264A20.637,20.637,0,0,1,374.477,155a16.175,16.175,0,0,1,5.262-7.062,10.882,10.882,0,0,1,6.6-2.047,10.392,10.392,0,0,1,2.53.284,19.75,19.75,0,0,1,3.219,1.256,4.53,4.53,0,0,0,1.412.5.744.744,0,0,0,.612-.417,3.748,3.748,0,0,0,.309-1.625Z" transform="translate(-7.421 -0.174)"/><path class="c" d="M412.739,177.7v.876H401.808V177.7h.917a2.47,2.47,0,0,0,2.281-1.141,8.741,8.741,0,0,0,.446-3.6V152.274a13.443,13.443,0,0,0-.235-3.173,2.025,2.025,0,0,0-.773-1,3.018,3.018,0,0,0-1.718-.56h-.917v-.874h10.931v.874h-.91a2.469,2.469,0,0,0-2.272,1.143,8.391,8.391,0,0,0-.462,3.592v20.693a13.416,13.416,0,0,0,.233,3.177,1.941,1.941,0,0,0,.792,1,2.875,2.875,0,0,0,1.709.56Z" transform="translate(-8.965 -0.215)"/><path class="c" d="M428.628,145.9q4.975,0,8.623,4.719A18.693,18.693,0,0,1,440.9,162.4a19.268,19.268,0,0,1-3.678,12.074q-3.692,4.8-8.9,4.8a10.836,10.836,0,0,1-8.887-4.683q-3.6-4.683-3.6-12.117,0-7.606,4.156-12.4A11.06,11.06,0,0,1,428.628,145.9Zm-.379,1.675a6.328,6.328,0,0,0-5.515,3.183q-2.6,3.956-2.6,11.6,0,7.818,2.7,12.038a6.224,6.224,0,0,0,5.442,3.205,6.98,6.98,0,0,0,5.971-3.515q2.351-3.515,2.354-11.07,0-8.2-2.579-12.23a6.532,6.532,0,0,0-5.772-3.212Z" transform="translate(-9.713 -0.174)"/><path class="c" d="M443.315,146.666h6.945l15.6,23.737V152.2c0-1.965-.177-3.187-.524-3.677a2.575,2.575,0,0,0-2.236-.987h-.881v-.874h8.961v.874h-.9a2.461,2.461,0,0,0-2.335,1.225,8.923,8.923,0,0,0-.407,3.439V179.09h-.685l-16.876-25.717v19.672c0,1.962.167,3.184.5,3.674a2.626,2.626,0,0,0,2.244.985h.9v.876H444.66V177.7h.881a2.461,2.461,0,0,0,2.353-1.222,8.918,8.918,0,0,0,.407-3.436V150.818a13.282,13.282,0,0,0-1.681-2.116,5.724,5.724,0,0,0-1.681-.952,4.708,4.708,0,0,0-1.625-.21Z" transform="translate(-11.178 -0.215)"/><path class="c" d="M481.322,148.486v12.532h5.4c1.451,0,2.423-.269,2.9-.813a6.005,6.005,0,0,0,1.106-3.779h.725v11.081h-.725a15.2,15.2,0,0,0-.543-2.979,2.62,2.62,0,0,0-1.1-1.291,4.7,4.7,0,0,0-2.367-.473h-5.4v10.442a11.79,11.79,0,0,0,.151,2.556,1.43,1.43,0,0,0,.525.722,2.556,2.556,0,0,0,1.4.269h4.3a9.593,9.593,0,0,0,3.13-.371,4.6,4.6,0,0,0,1.874-1.465,18.685,18.685,0,0,0,2.384-4.355h.8l-2.2,8.013H474.037V177.7h.894a3,3,0,0,0,1.713-.537,1.834,1.834,0,0,0,.822-1.124,13.854,13.854,0,0,0,.215-3.076V152.274c0-2.045-.171-3.307-.5-3.782a2.55,2.55,0,0,0-2.253-.952h-.894v-.874h19.6l.3,6.993h-.8a12.747,12.747,0,0,0-.877-3.408,3.213,3.213,0,0,0-1.4-1.42,6.864,6.864,0,0,0-2.625-.346Z" transform="translate(-12.816 -0.215)"/><path class="c" d="M326.247,203.66v8.068a6.8,6.8,0,0,0,.463,3.254,2.067,2.067,0,0,0,1.845.9h.826v.725h-9.4v-.725h.812a2.1,2.1,0,0,0,2-1.145,8.418,8.418,0,0,0,.325-3.012V193.875a7.043,7.043,0,0,0-.447-3.255,2.149,2.149,0,0,0-1.875-.9h-.812V189H328a11.591,11.591,0,0,1,4.65.763,6.653,6.653,0,0,1,2.863,2.569,7.782,7.782,0,0,1,1.155,4.291,8.3,8.3,0,0,1-1.757,5.491,6.126,6.126,0,0,1-4.982,2.118,11.423,11.423,0,0,1-1.7-.143,18.133,18.133,0,0,1-1.974-.429Zm0-1.156c.568.136,1.073.235,1.505.307a7.431,7.431,0,0,0,1.128.095,3.527,3.527,0,0,0,2.867-1.628,6.994,6.994,0,0,0,1.2-4.236,9.337,9.337,0,0,0-.579-3.322,4.764,4.764,0,0,0-1.641-2.288,3.961,3.961,0,0,0-2.388-.765,7.636,7.636,0,0,0-2.1.385Z" transform="translate(-4.602 -2.472)"/><path class="c" d="M349.178,215.886v.725h-9.4v-.725h.786a2.129,2.129,0,0,0,1.967-1.005,7.858,7.858,0,0,0,.379-3.152V193.875a11.792,11.792,0,0,0-.206-2.779,1.719,1.719,0,0,0-.663-.88,2.586,2.586,0,0,0-1.479-.492h-.786V189h9.4v.726h-.783a2.094,2.094,0,0,0-1.948,1,7.447,7.447,0,0,0-.4,3.148v17.852a12.334,12.334,0,0,0,.2,2.785,1.743,1.743,0,0,0,.685.88,2.48,2.48,0,0,0,1.468.492Z" transform="translate(-5.657 -2.472)"/><path class="c" d="M357.689,190.6v10.781h4.586a3.428,3.428,0,0,0,2.535-.7,5.075,5.075,0,0,0,.969-3.237h.582v9.544h-.582a12.806,12.806,0,0,0-.473-2.568,2.224,2.224,0,0,0-.959-1.109,4.153,4.153,0,0,0-2.07-.406h-4.586v9.028a10.686,10.686,0,0,0,.128,2.212,1.264,1.264,0,0,0,.454.627,2.286,2.286,0,0,0,1.209.229H363.2a8.242,8.242,0,0,0,2.7-.318,3.917,3.917,0,0,0,1.617-1.26,15.947,15.947,0,0,0,2.055-3.741h.722l-1.9,6.924H351.422v-.725h.769a2.569,2.569,0,0,0,1.475-.473,1.629,1.629,0,0,0,.71-.987,12.593,12.593,0,0,0,.181-2.7V193.875a7.517,7.517,0,0,0-.431-3.313,2.171,2.171,0,0,0-1.935-.834h-.769V189H368.33l.215,6.044h-.727a11.159,11.159,0,0,0-.751-2.924,2.767,2.767,0,0,0-1.2-1.217,5.863,5.863,0,0,0-2.256-.3Z" transform="translate(-6.278 -2.472)"/><path class="c" d="M385.805,216.611l-8.526-23.235V211.8a7.244,7.244,0,0,0,.425,3.211,2.2,2.2,0,0,0,1.929.872h.775v.725h-7.72v-.725h.778a2.109,2.109,0,0,0,2.006-1.072,7.972,7.972,0,0,0,.347-3.011v-18a7.869,7.869,0,0,0-.328-2.679,2.069,2.069,0,0,0-.84-1,3.709,3.709,0,0,0-1.964-.4V189h6.42l7.868,21.448L394.852,189H401.1v.726h-.773a2.088,2.088,0,0,0-1.988,1.072,7.573,7.573,0,0,0-.364,3.009v18a6.691,6.691,0,0,0,.462,3.211,2.127,2.127,0,0,0,1.893.872h.773v.725h-9.4v-.728h.772a2.065,2.065,0,0,0,1.988-1.072,7.543,7.543,0,0,0,.369-3.011V193.376l-8.528,23.235Z" transform="translate(-7.412 -2.472)"/><path class="c" d="M415.754,188.383q4.288,0,7.425,4.071a16.159,16.159,0,0,1,3.139,10.158,16.638,16.638,0,0,1-3.169,10.413q-3.169,4.142-7.657,4.144a9.326,9.326,0,0,1-7.648-4.039q-3.1-4.039-3.093-10.455a15.805,15.805,0,0,1,3.568-10.7,9.514,9.514,0,0,1,7.434-3.594Zm-.318,1.455a5.419,5.419,0,0,0-4.733,2.74q-2.239,3.408-2.237,9.993,0,6.734,2.316,10.369a5.334,5.334,0,0,0,4.666,2.764,5.99,5.99,0,0,0,5.132-3.025q2.018-3.029,2.018-9.544,0-7.059-2.21-10.535a5.6,5.6,0,0,0-4.952-2.762Z" transform="translate(-9.122 -2.44)"/><path class="c" d="M428.391,189h5.95l13.6,20.605V193.8a6.906,6.906,0,0,0-.451-3.219,2.206,2.206,0,0,0-1.928-.866H444.8V189h7.724v.726h-.776a2.105,2.105,0,0,0-2.006,1.072,7.866,7.866,0,0,0-.348,3.009v23.258h-.6l-14.636-22.21v16.951a7.092,7.092,0,0,0,.433,3.211,2.218,2.218,0,0,0,1.924.872h.778v.725h-7.722v-.728h.757a2.128,2.128,0,0,0,2.023-1.072,7.953,7.953,0,0,0,.35-3.011V192.641a11.824,11.824,0,0,0-1.453-1.887,4.868,4.868,0,0,0-1.457-.843,3.975,3.975,0,0,0-1.4-.189Z" transform="translate(-10.382 -2.472)"/><path class="c" d="M473.64,189l.216,6.489h-.612a9.8,9.8,0,0,0-.485-2.442,3.424,3.424,0,0,0-3.525-2.3h-3.1v21.063a7.121,7.121,0,0,0,.43,3.211,2.218,2.218,0,0,0,1.924.872h.778v.725h-9.4v-.728h.773a2.114,2.114,0,0,0,2.009-1.072A7.952,7.952,0,0,0,463,211.8V190.74h-2.651a5.988,5.988,0,0,0-2.2.284,3.249,3.249,0,0,0-1.463,1.484,7.227,7.227,0,0,0-.725,2.974h-.612l.221-6.489Z" transform="translate(-11.82 -2.472)"/><path class="c" d="M482.8,190.6v10.781h4.588a3.432,3.432,0,0,0,2.535-.7,5.078,5.078,0,0,0,.962-3.237h.588v9.544h-.582a13.482,13.482,0,0,0-.473-2.568,2.261,2.261,0,0,0-.959-1.109,4.148,4.148,0,0,0-2.066-.406H482.8v9.028a10.939,10.939,0,0,0,.127,2.212,1.292,1.292,0,0,0,.457.627,2.282,2.282,0,0,0,1.212.229h3.71a8.284,8.284,0,0,0,2.7-.318,3.918,3.918,0,0,0,1.615-1.26,16.013,16.013,0,0,0,2.056-3.741h.728l-1.909,6.924H476.536v-.725h.769a2.6,2.6,0,0,0,1.478-.473,1.631,1.631,0,0,0,.7-.987,12.257,12.257,0,0,0,.182-2.7V193.875a7.488,7.488,0,0,0-.423-3.313,2.182,2.182,0,0,0-1.939-.834h-.769V189h16.9l.218,6.044h-.732a11.105,11.105,0,0,0-.744-2.924,2.8,2.8,0,0,0-1.2-1.217,5.882,5.882,0,0,0-2.257-.3Z" transform="translate(-12.95 -2.472)"/><path class="d" d="M251.066,159.248l2.707-8.149h38.171l2.669,8.146h-8.189l1.026-3.424H275.558l1.242,3.408h-8.066l1.181-3.287H258.058l1.136,3.3Z" transform="translate(-0.927 -0.452)"/></g></svg>