<svg xmlns="http://www.w3.org/2000/svg" width="17.932" height="18" viewBox="0 0 17.932 18"><defs><style>.a{fill:#484c4d;}</style></defs><g transform="translate(-0.912)"><path class="a" d="M4.545,11.965A19.1,19.1,0,0,0,10.9,16.941a9.886,9.886,0,0,0,3.554,1.052c.086,0,.168.007.254.007a2.944,2.944,0,0,0,2.283-.981A.081.081,0,0,0,17,17a9.611,9.611,0,0,1,.72-.746c.175-.168.354-.343.526-.522a1.8,1.8,0,0,0-.007-2.682L16,10.809a1.814,1.814,0,0,0-1.313-.6,1.875,1.875,0,0,0-1.328.6L12.024,12.14c-.123-.071-.25-.134-.369-.194a4.613,4.613,0,0,1-.41-.224A14.132,14.132,0,0,1,7.869,8.649a8.138,8.138,0,0,1-1.141-1.82c.351-.317.679-.649,1-.973.112-.116.228-.231.343-.347a1.912,1.912,0,0,0,.619-1.343,1.9,1.9,0,0,0-.619-1.343L6.955,1.712c-.131-.131-.254-.257-.38-.388-.246-.254-.5-.515-.757-.75A1.859,1.859,0,0,0,4.5,0,1.914,1.914,0,0,0,3.177.578L1.782,1.973A2.866,2.866,0,0,0,.928,3.808a6.9,6.9,0,0,0,.518,2.984A17.359,17.359,0,0,0,4.545,11.965ZM1.838,3.886a1.973,1.973,0,0,1,.593-1.268L3.818,1.231A1,1,0,0,1,4.5.914a.953.953,0,0,1,.671.324c.25.231.485.474.739.731.127.131.257.261.388.4L7.414,3.476a1.013,1.013,0,0,1,.351.7,1.013,1.013,0,0,1-.351.7c-.116.116-.231.235-.347.351-.347.351-.671.683-1.029,1l-.019.019a.729.729,0,0,0-.186.828c0,.011.007.019.011.03a8.778,8.778,0,0,0,1.309,2.13,14.915,14.915,0,0,0,3.6,3.275,5.34,5.34,0,0,0,.492.269,4.611,4.611,0,0,1,.41.224l.041.022a.78.78,0,0,0,.362.093.791.791,0,0,0,.556-.254L14,11.462a.987.987,0,0,1,.683-.332.937.937,0,0,1,.66.332L17.6,13.707a.9.9,0,0,1-.011,1.406c-.157.168-.321.328-.5.5a10.742,10.742,0,0,0-.78.809,2.048,2.048,0,0,1-1.6.679c-.063,0-.131,0-.194-.007a8.981,8.981,0,0,1-3.215-.962,18.141,18.141,0,0,1-6.046-4.737,16.616,16.616,0,0,1-2.947-4.9A6.016,6.016,0,0,1,1.838,3.886Z" transform="translate(0 0)"/></g></svg>