<svg xmlns="http://www.w3.org/2000/svg" width="17.933" height="13.449" viewBox="0 0 17.933 13.449"><defs><style>.a{fill:#484c4d;}</style></defs><path class="a" d="M16.251,59.882H1.681A1.683,1.683,0,0,0,0,61.563V71.65a1.683,1.683,0,0,0,1.681,1.681h14.57a1.683,1.683,0,0,0,1.681-1.681V61.563A1.683,1.683,0,0,0,16.251,59.882Zm0,1.121a.557.557,0,0,1,.215.043l-7.5,6.5-7.5-6.5A.558.558,0,0,1,1.681,61Zm0,11.208H1.681a.561.561,0,0,1-.56-.56V62.23L8.6,68.711a.561.561,0,0,0,.734,0l7.478-6.481v9.42A.561.561,0,0,1,16.251,72.211Z" transform="translate(0 -59.882)"/></svg>